<svg xmlns="http://www.w3.org/2000/svg" width="46" height="46" fill="none"><path opacity=".1" d="M23 46c12.703 0 23-10.297 23-23S35.703 0 23 0 0 10.297 0 23s10.297 23 23 23z" fill="#fff"/><path d="M34 25.378v8.133h-4.715v-7.589c0-1.906-.682-3.207-2.39-3.207-1.302 0-2.077.877-2.418 1.725-.125.303-.157.725-.157 1.15v7.921h-4.717s.064-12.853 0-14.185h4.717v2.011l-.031.046h.03v-.046c.627-.965 1.746-2.344 4.251-2.344 3.104 0 5.43 2.028 5.43 6.385zm-19.33-12.89c-1.614 0-2.67 1.06-2.67 2.451 0 1.362 1.025 2.452 2.607 2.452h.031c1.645 0 2.668-1.09 2.668-2.452-.031-1.392-1.023-2.45-2.637-2.45zm-2.39 21.023h4.715V19.326H12.28v14.185z" fill="#fff"/></svg>