<svg xmlns="http://www.w3.org/2000/svg" width="46" height="46" fill="none"><path opacity=".1" d="M23 46c12.703 0 23-10.297 23-23S35.703 0 23 0 0 10.297 0 23s10.297 23 23 23z" fill="#fff"/><path d="M29.56 24.16c-1.103 0-2.137-.467-3.077-1.227l.229-1.074.01-.04c.203-1.144.85-3.063 2.839-3.063a2.708 2.708 0 012.704 2.705 2.713 2.713 0 01-2.704 2.7zm0-8.143c-2.54 0-4.509 1.65-5.31 4.365-1.223-1.835-2.147-4.037-2.69-5.892h-2.734v7.115a2.55 2.55 0 01-2.546 2.546 2.55 2.55 0 01-2.545-2.546V14.49H11v7.115c-.01 2.914 2.362 5.305 5.275 5.305 2.914 0 5.286-2.391 5.286-5.305v-1.193c.532 1.109 1.183 2.227 1.974 3.222l-1.676 7.875h2.8l1.212-5.712c1.064.68 2.288 1.108 3.69 1.108 2.998 0 5.439-2.456 5.439-5.454 0-2.993-2.441-5.434-5.44-5.434z" fill="#fff"/></svg>