<svg xmlns="http://www.w3.org/2000/svg" width="46" height="46" fill="none"><path opacity=".1" d="M23 46c12.703 0 23-10.297 23-23S35.703 0 23 0 0 10.297 0 23s10.297 23 23 23z" fill="#fff"/><path d="M27.042 13h-8.084A5.965 5.965 0 0013 18.958v8.084A5.965 5.965 0 0018.958 33h8.084A5.965 5.965 0 0033 27.042v-8.084A5.965 5.965 0 0027.042 13zm3.946 14.042a3.946 3.946 0 01-3.946 3.946h-8.084a3.946 3.946 0 01-3.946-3.946v-8.084a3.946 3.946 0 013.946-3.946h8.084a3.946 3.946 0 013.946 3.946v8.084z" fill="#fff"/><path d="M23 18c-2.757 0-5 2.243-5 5s2.243 5 5 5 5-2.243 5-5-2.243-5-5-5zm0 8.055a3.055 3.055 0 110-6.11 3.055 3.055 0 010 6.11zM28 19a1 1 0 100-2 1 1 0 000 2z" fill="#fff"/></svg>