<svg xmlns="http://www.w3.org/2000/svg" width="46" height="46" fill="none"><path opacity=".1" d="M23 46c12.703 0 23-10.297 23-23S35.703 0 23 0 0 10.297 0 23s10.297 23 23 23z" fill="#fff"/><path d="M27.123 13.004L24.725 13c-2.695 0-4.436 1.932-4.436 4.922v2.27h-2.412c-.208 0-.377.182-.377.407v3.288c0 .226.169.408.377.408h2.412v8.297c0 .226.168.408.377.408h3.146c.209 0 .378-.183.378-.408v-8.297h2.82c.208 0 .377-.182.377-.408V20.6a.426.426 0 00-.11-.288.364.364 0 00-.267-.12h-2.82v-1.923c0-.925.203-1.394 1.317-1.394l1.616-.001c.208 0 .377-.183.377-.408v-3.053c0-.225-.169-.407-.377-.408z" fill="#fff"/></svg>