<svg width="32" height="34" fill="none" xmlns="http://www.w3.org/2000/svg"><path d="M11.791 21.187l.788-.455a.671.671 0 00.246-.917l-1.493-2.585a.671.671 0 00-.917-.245l-.787.454a.672.672 0 01-1.007-.581v-.91c0-.37-.3-.67-.671-.67H4.965a.67.67 0 00-.671.67v.91a.672.672 0 01-1.007.581l-.788-.454a.67.67 0 00-.917.245L.09 19.815a.671.671 0 00.246.917l.787.455a.671.671 0 010 1.162l-.787.455a.671.671 0 00-.246.917l1.492 2.585a.67.67 0 00.917.246l.788-.455a.672.672 0 011.007.581v.91c0 .37.3.67.671.67H7.95c.37 0 .67-.3.67-.67v-.91a.672.672 0 011.008-.581l.787.455a.668.668 0 00.917-.246l1.493-2.585a.671.671 0 00-.246-.917l-.788-.454a.671.671 0 010-1.163zM6.457 23.76a1.991 1.991 0 110-3.983 1.991 1.991 0 010 3.983zm4.816-21.052A.922.922 0 009.97 4.012l1.647 1.647C5.562 5.96.661 10.715.131 16.707l.136-.236a2.196 2.196 0 011.897-1.095l.05.002c1.038-4.318 4.803-7.584 9.365-7.868L9.97 9.12a.922.922 0 001.304 1.304l3.206-3.206a.922.922 0 000-1.304l-3.206-3.206zm11.65 4.717a3.716 3.716 0 003.713-3.713A3.716 3.716 0 0022.922 0a3.716 3.716 0 00-3.712 3.712 3.717 3.717 0 003.712 3.713zm7.231 10.007V12.33a3.267 3.267 0 00-2.25-3.105l-.006-.002-1.964-.325a.33.33 0 00-.405.201L23.3 15.211a.402.402 0 01-.755 0l-2.228-6.113a.329.329 0 00-.31-.216c-.031 0-2.06.34-2.06.34a3.29 3.29 0 00-2.257 3.124v5.086c0 .763.618 1.38 1.38 1.38h11.704a1.38 1.38 0 001.38-1.38zm1.642 1.22c-.077 1.055-.943 1.701-1.998 1.778-.808 4.628-4.717 8.2-9.5 8.498l1.61-1.61a.922.922 0 10-1.303-1.303l-3.206 3.206a.922.922 0 000 1.303l3.206 3.206a.92.92 0 001.303 0 .922.922 0 000-1.304l-1.647-1.647c6.414-.317 11.535-5.635 11.535-12.127z" fill="#fff"/><path d="M23.732 8.827a.456.456 0 00-.338-.14h-.943a.456.456 0 00-.338.14.438.438 0 00-.057.515l.504.761-.236 1.992.465 1.238a.142.142 0 00.267 0l.465-1.238-.236-1.992.504-.76a.438.438 0 00-.057-.516z" fill="#fff"/></svg>