<svg width="30" height="30" fill="none" xmlns="http://www.w3.org/2000/svg"><path d="M14.763 15.703a.703.703 0 100-1.406.703.703 0 000 1.406z" fill="#fff"/><path d="M15 0a15 15 0 100 29.998A15 15 0 0015 0zm-.042 26.25a11.249 11.249 0 118.469-18.647l-.009-2.925a.469.469 0 01.469-.47.497.497 0 01.488.48v4.687h-4.688a.482.482 0 01-.475-.477.469.469 0 01.468-.469h3.226a10.312 10.312 0 10-7.948 16.884.469.469 0 010 .937zM16.403 15a1.621 1.621 0 01-.168.71l3.44 2.93a.703.703 0 11-.912 1.07l-3.65-3.11a1.636 1.636 0 01-1.053-3.076v-6.48a.703.703 0 01.703-.703.694.694 0 01.706.69v6.563A1.536 1.536 0 0116.403 15zm3.966 9.865c-.915.503-1.895.875-2.912 1.107a.483.483 0 01-.418-.108.469.469 0 01.21-.807c.932-.212 1.83-.553 2.668-1.013a.469.469 0 01.451.82v.001zm3.652-3.198a11.296 11.296 0 01-1.963 2.062.47.47 0 01-.593-.727 10.38 10.38 0 001.8-1.889.47.47 0 11.755.556v-.002zm1.024-1.68a.47.47 0 01-.84-.415c.24-.486.442-.991.603-1.51a.47.47 0 11.895.278 11.166 11.166 0 01-.658 1.646z" fill="#fff"/></svg>