<svg width="29" height="29" fill="none" xmlns="http://www.w3.org/2000/svg"><path d="M20.625 14.041l-7.5 14.063h15l-7.5-14.063zm-.938 5.625a.938.938 0 011.875 0v2.813a.938.938 0 01-1.875 0v-2.813zm.938 6.563a.938.938 0 01-.938-.938.938.938 0 011.875 0 .938.938 0 01-.28.656.938.938 0 01-.657.282zm-4.265-8.203h-.188c-2.016-.75-1.875-1.735-1.875-2.25v-.797a6.844 6.844 0 001.969-3.282c1.172 0 1.406-2.39 1.406-2.718 0-.329.047-1.782-1.125-1.782 2.484-6.047-4.172-9.234-9.188-5.765-2.062 0-2.203 2.765-1.453 5.765-1.172 0-1.125 1.407-1.125 1.782s.282 2.718 1.407 2.718a6.844 6.844 0 001.968 3.282v.75c0 .75 0 1.875-3.797 2.625C.563 19.104 0 22.479 0 22.479h14.016l2.343-4.453z" fill="#fff"/></svg>