<svg width="29" height="23" fill="none" xmlns="http://www.w3.org/2000/svg"><path d="M3.75 3.75h20.625V1.875H8.437V0H0v21.094a1.406 1.406 0 00.516 1.078 1.874 1.874 0 011.359-1.5V5.625A1.875 1.875 0 013.75 3.75z" fill="#fff"/><path d="M3.75 5.625v15.469A1.406 1.406 0 012.344 22.5h24.375a1.407 1.407 0 001.406-1.406V5.625H3.75zm10.078 11.578a.94.94 0 01-.014 1.405.937.937 0 01-1.392-.186l-3.844-4.36 3.844-4.359a.937.937 0 111.406 1.219l-2.718 3.14 2.718 3.141zm5.625 1.219a.937.937 0 11-1.406-1.219l2.719-3.14-2.719-3.141a.94.94 0 01.014-1.405.937.937 0 011.392.186l3.844 4.36-3.844 4.359z" fill="#fff"/></svg>