<svg width="30" height="30" fill="none" xmlns="http://www.w3.org/2000/svg"><path d="M15.879 0c-1.939 0-3.574 1.635-3.574 3.574 0 1.94 1.635 3.574 3.574 3.574 1.939 0 3.516-1.635 3.516-3.574C19.395 1.635 17.818 0 15.879 0z" fill="#fff"/><path d="M19.78 7.148c-.965 1.072-2.349 1.758-3.901 1.758a5.37 5.37 0 01-3.96-1.758 5.233 5.233 0 00-1.372 3.516v.879c0 .486.393.879.879.879h8.847a.878.878 0 00.88-.879v-.879c0-1.355-.529-2.58-1.372-3.516zM8.491 26.977l-4.478-8.98a1.758 1.758 0 00-2.354-.79l-1.17.58a.88.88 0 00-.396 1.18l5.273 10.547a.88.88 0 001.177.395l1.156-.572a1.758 1.758 0 00.792-2.36zM29.28 14.514a1.752 1.752 0 00-2.32.228l-4.805 5.907c-.334.351-.967.562-1.3.562h-4.096a.87.87 0 01-.88-.879.87.87 0 01.88-.879h3.515c.967 0 1.758-.79 1.758-1.758 0-.966-.791-1.757-1.758-1.757H15.67c-.438 0-.657-.278-1.002-.58-1.36-1.224-3.396-1.814-5.456-1.336-1.145.265-1.916.727-2.699 1.347l-.026-.021-1.271 1.119 4.996 10.018h10.063a5.295 5.295 0 004.219-2.11l5.156-7.383a1.771 1.771 0 00-.369-2.478z" fill="#fff"/></svg>