<svg width="19" height="30" fill="none" xmlns="http://www.w3.org/2000/svg"><path d="M16.875 28.125v-2.343c-1.875 0-4.66-2.647-6.09-3.758a2.397 2.397 0 00-2.824.008c-1.418 1.12-4.211 3.75-6.086 3.75v2.343h15zm-7.5-10.781c.198 0 .976-1.807 2.119-2.56l2.59-1.82a6.47 6.47 0 00.993-.87c-4.453 1.795-7.543-1.406-11.288.094l-.02.004c.275.284.575.544.896.774 0 0 1.942 1.366 2.59 1.82 1.192.83 1.76 2.558 2.12 2.558z" fill="#fff"/><path d="M5.989 10.835c1.06.035 2.113.185 3.14.446.998.254 2.019.4 3.047.437a6.693 6.693 0 002.55-.496l1.383-.557c.503-.946.765-2 .766-3.071V1.875h-15v5.719a6.556 6.556 0 001.213 3.79l.422-.097a6.733 6.733 0 012.479-.452zm8.096 6.535L11.6 15.652s-.295.252-.351.322a8.188 8.188 0 00-.938 1.575.989.989 0 01-.936.732 1.053 1.053 0 01-.944-.692 6.213 6.213 0 00-1.067-1.515c-.108-.102-.342-.361-.342-.361L4.666 17.37a6.562 6.562 0 00-2.791 5.37v2.104c1.23 0 3.4-1.805 4.695-2.884.267-.225.537-.446.81-.664a3.333 3.333 0 013.98-.012c.267.207.577.464.905.736 1.274 1.056 3.408 2.824 4.61 2.824V22.74a6.562 6.562 0 00-2.79-5.37zM18.281 30H.47a.469.469 0 110-.938h17.81a.469.469 0 110 .938zm0-29.063H.47A.469.469 0 11.47 0h17.81a.469.469 0 110 .938z" fill="#fff"/></svg>