<svg width="432" height="453" fill="none" xmlns="http://www.w3.org/2000/svg"><path d="M31.614 340.787c-.27 0-.405 0-.675-.129l-29.183-14.44C.676 325.702 0 324.671 0 323.511c0-1.161.676-2.192 1.756-2.708L30.67 305.59c.27-.129.27-.386.27-.515s0-.387-.27-.516L2.027 289.475c-1.081-.516-1.622-1.547-1.622-2.708 0-1.16.54-2.191 1.622-2.707l40.26-23.077c2.973-1.677 6.756-1.805 9.863-.129l22.427 12.118c.676.387.81 1.161.54 1.805-.405.645-1.215.774-1.89.516l-22.428-12.119c-2.162-1.16-4.864-1.16-7.16.129L3.377 286.252c-.27.129-.27.386-.27.515s0 .387.27.516l28.642 15.213c1.08.516 1.62 1.547 1.62 2.707 0 1.161-.675 2.192-1.756 2.708L2.972 322.995c-.27.129-.27.387-.27.516s0 .387.27.515l29.183 14.44c.675.387.945 1.16.54 1.676-.135.387-.675.645-1.08.645z" fill="#006A4E"/><path d="M34.713 346.305l3.629-6.039-13.596-7.439-3.628 6.039 13.595 7.439z" fill="#006A4E"/><path d="M20.536 337.305c0-1.547 1.081-3.481 2.567-4.255 1.351-.773 2.567-.128 2.567 1.419 0 1.547-1.08 3.481-2.567 4.254-1.486.774-2.567.129-2.567-1.418zm31.954 21.203l5.846-9.731-21.214-11.607-5.846 9.731 21.213 11.607z" fill="#006A4E"/><path d="M36.208 338.981l-4.593-2.45c-1.892 1.289-3.378 3.739-3.648 6.06l4.593 2.449c1.892-1.289 3.378-3.739 3.648-6.059z" fill="#45BB9B"/><path d="M30.128 344.267c0-2.579 1.891-5.544 4.188-6.833 2.297-1.289 4.188-.258 4.188 2.321 0 2.578-1.891 5.543-4.188 6.832-2.432 1.161-4.188.258-4.188-2.32z" fill="#006A4E"/><path d="M25.944 335.889c.97-.003 1.755-.409 1.753-.908-.001-.498-.789-.9-1.759-.897-.97.003-1.755.409-1.753.907.001.499.789.901 1.759.898z" fill="#EDF9F6"/><path d="M123.215 247.059L51.61 208.124c-2.567-1.419-2.297-3.997.676-5.673l41.206-22.691c2.972-1.676 7.566-1.805 10.268-.387l71.605 38.936c2.567 1.418 2.297 3.996-.676 5.672l-41.206 22.691c-2.973 1.547-7.566 1.805-10.268.387z" fill="#A5C7BE"/><path d="M181.849 205.158V45.679l-66.471-16.631-12.294-6.704c-2.837-1.547-7.7-1.29-10.943.386l-11.484 6.318H45.26l10.538 153.935c-.135 1.032.54 2.063 1.891 2.837l66.336 47.701c2.837 1.548 7.701 1.29 10.943-.386l44.179-24.367c1.892-1.031 2.702-2.321 2.702-3.61z" fill="#45BB9B"/><path d="M98.085 21.313c-2.026 0-4.188.515-5.81 1.418l-11.483 6.317H45.395v159.866c-.135 1.031.54 2.063 1.891 2.836l76.739 41.772c1.351.773 3.243 1.031 5.134 1.031l.811-160.897-31.885-52.344z" fill="#EDF9F6"/><path d="M124.701 233.908c2.432 1.032 5.945.903 8.782-.129V71.722h-8.782v162.186z" fill="#006A4E"/><path d="M124.025 73.655L47.151 31.884c-2.837-1.547-2.432-4.255.81-6.06l44.18-24.366c3.242-1.805 8.106-1.934 10.943-.387l76.739 41.771c2.837 1.548 2.432 4.255-.811 6.06l-44.044 24.367c-3.242 1.804-8.241 1.933-10.943.386z" fill="#EDF9F6"/><path d="M179.148 45.937l-44.179 24.367c-3.243 1.805-8.106 1.934-10.944.386L47.151 28.92c-.675-.388-1.08-.774-1.35-1.161-.946 1.418-.541 3.094 1.35 4.125l76.739 41.772c2.837 1.547 7.701 1.289 10.944-.387l44.178-24.367c2.567-1.418 3.243-3.352 2.162-4.899-.27.774-1.081 1.418-2.026 1.934z" fill="#FAFDFF"/><path d="M126.187 56.766L74.983 28.532c-1.351-.774-1.216-1.934.405-2.836l20.67-11.475c1.487-.773 3.784-.902 5.135-.258l51.069 28.235c1.351.773 1.216 1.934-.405 2.836L131.186 56.38c-1.486 1.03-3.783 1.16-4.999.386z" fill="#00A377"/><path d="M98.49 29.692l-2.972-1.676c-.135-.129-.135-.258 0-.387l2.838-1.547c.27-.129.54-.129.675 0l2.972 1.676c.135.129.135.258 0 .387l-2.702 1.547a.897.897 0 01-.81 0zm9.999 5.415l-2.973-1.547c-.135-.13-.135-.258 0-.387l2.838-1.547c.27-.129.54-.129.675 0l2.972 1.676c.135.129.135.258 0 .387l-2.837 1.547c-.27 0-.54 0-.675-.13zm9.862 5.543l-2.972-1.675c-.135-.129-.135-.258 0-.387l2.837-1.547c.27-.129.54-.129.675 0l2.973 1.676c.135.129.135.258 0 .387l-2.838 1.547h-.675zm9.862 5.415l-2.972-1.676c-.135-.129-.135-.258 0-.387l2.837-1.547c.27-.129.541-.129.676 0l2.972 1.676c.135.129.135.258 0 .387l-2.837 1.547c-.135 0-.406.129-.676 0z" fill="#EDF9F6"/><path d="M74.983 28.532c.135 0 .27-.128.405-.128L96.06 17.058c1.486-.773 3.783-.902 5.134-.258l51.069 28.235c1.216-.774 1.216-1.934 0-2.579l-51.069-28.363c-1.351-.774-3.648-.645-5.134.258L75.39 25.696c-1.487.774-1.622 2.063-.406 2.836z" fill="#006A4E"/><path d="M143.615 105.242l29.047-15.858c1.621-.902 2.972-3.352 2.972-5.414v-9.927c0-2.063-1.351-3.095-2.972-2.192l-29.047 15.858c-1.621.902-2.972 3.352-2.972 5.414v10.056c0 2.063 1.351 2.966 2.972 2.063z" fill="#00A377"/><path d="M174.013 71.594c.406.387.811 1.16.811 2.063v9.927c0 2.063-1.351 4.512-2.972 5.415l-29.048 15.857c-.54.258-.945.387-1.486.258.541.516 1.351.516 2.162.129l29.047-15.858c1.622-.902 2.973-3.352 2.973-5.415v-9.927c.135-1.418-.541-2.191-1.487-2.45z" fill="#fff"/><path d="M152.261 94.541l2.703-1.418c.405-.258.675-.773.675-1.16v-2.707c0-.516-.27-.645-.675-.516l-2.703 1.418c-.405.258-.675.774-.675 1.16v2.708c.135.515.405.644.675.515z" fill="#45BB9B"/><path d="M161.178 89.642l2.703-1.418c.405-.258.675-.774.675-1.16v-2.708c0-.516-.27-.644-.675-.516l-2.703 1.419c-.405.257-.675.773-.675 1.16v2.707c.135.516.405.645.675.516z" fill="#fff"/><path d="M143.615 176.924l29.047-15.858c1.621-.902 2.972-3.352 2.972-5.415v-9.927c0-2.063-1.351-3.094-2.972-2.192l-29.047 15.858c-1.621.903-2.972 3.352-2.972 5.415v9.927c0 2.192 1.351 3.094 2.972 2.192z" fill="#00A377"/><path d="M174.013 143.275c.406.387.811 1.161.811 2.063v9.927c0 2.063-1.351 4.513-2.972 5.415l-29.048 15.987c-.54.258-.945.387-1.486.258.541.515 1.351.515 2.162.129l29.047-15.858c1.622-.903 2.973-3.352 2.973-5.415v-10.056c.135-1.418-.541-2.192-1.487-2.45z" fill="#fff"/><path d="M152.261 166.223l2.703-1.418c.405-.258.675-.774.675-1.16v-2.708c0-.515-.27-.644-.675-.516l-2.703 1.419c-.405.258-.675.773-.675 1.16v2.707c.135.516.405.645.675.516z" fill="#45BB9B"/><path d="M161.178 161.324l2.703-1.419c.405-.257.675-.773.675-1.16v-2.707c0-.516-.27-.645-.675-.516l-2.703 1.418c-.405.258-.675.774-.675 1.161v2.707c.135.516.405.645.675.516z" fill="#fff"/><path d="M143.615 212.765l29.047-15.858c1.621-.903 2.972-3.352 2.972-5.415v-9.927c0-2.063-1.351-3.094-2.972-2.192l-29.047 15.858c-1.621.902-2.972 3.352-2.972 5.415v9.927c0 2.192 1.351 3.094 2.972 2.192z" fill="#00A377"/><path d="M174.013 179.244c.406.387.811 1.16.811 2.063v9.927c0 2.063-1.351 4.512-2.972 5.415l-29.048 15.858c-.54.257-.945.386-1.486.257.541.516 1.351.516 2.162.129l29.047-15.857c1.622-.903 2.973-3.352 2.973-5.415v-9.927c.135-1.547-.541-2.321-1.487-2.45z" fill="#fff"/><path d="M152.261 202.064l2.703-1.418c.405-.258.675-.774.675-1.161v-2.707c0-.516-.27-.645-.675-.516l-2.703 1.418c-.405.258-.675.774-.675 1.161v2.707c.135.516.405.645.675.516z" fill="#45BB9B"/><path d="M161.178 197.165l2.703-1.419c.405-.257.675-.773.675-1.16v-2.707c0-.516-.27-.645-.675-.516l-2.703 1.418c-.405.258-.675.774-.675 1.16v2.708c.135.516.405.644.675.516z" fill="#fff"/><path d="M143.615 141.083l29.047-15.858c1.621-.902 2.972-3.352 2.972-5.414v-9.928c0-2.062-1.351-3.094-2.972-2.191l-29.047 15.857c-1.621.903-2.972 3.352-2.972 5.415v9.927c0 2.192 1.351 3.094 2.972 2.192z" fill="#00A377"/><path d="M174.013 107.435c.406.386.811 1.16.811 2.062v9.928c0 2.062-1.351 4.512-2.972 5.414l-29.048 15.858c-.54.258-.945.387-1.486.258.541.516 1.351.516 2.162.129l29.047-15.858c1.622-.902 2.973-3.352 2.973-5.415v-9.927c.135-1.418-.541-2.192-1.487-2.449z" fill="#fff"/><path d="M152.261 130.382l2.703-1.418c.405-.258.675-.773.675-1.16v-2.708c0-.515-.27-.644-.675-.515l-2.703 1.418c-.405.258-.675.773-.675 1.16v2.708c.135.515.405.644.675.515z" fill="#45BB9B"/><path d="M161.178 125.483l2.703-1.418c.405-.258.675-.774.675-1.161v-2.707c0-.516-.27-.645-.675-.516l-2.703 1.418c-.405.258-.675.774-.675 1.161v2.707c.135.516.405.645.675.516z" fill="#fff"/><path d="M118.351 95.186L51.34 58.184c-1.486-.773-2.702-3.094-2.702-4.899V41.037c0-1.933 1.216-2.836 2.702-1.933l67.011 37c1.486.774 2.702 3.095 2.702 4.9v12.248c0 1.805-1.216 2.707-2.702 1.934z" fill="#006A4E"/><path opacity=".4" d="M116.459 90.802l-63.228-34.81c-.81-.386-1.351-1.546-1.351-2.578V44.26c0-1.03.675-1.418 1.35-1.03l63.229 34.809c.811.386 1.351 1.547 1.351 2.578v9.154c0 1.031-.54 1.547-1.351 1.031z" fill="#EDF9F6"/><path d="M66.471 58.7l-9.457-5.157c-.675-.387-1.35-1.547-1.35-2.45 0-.902.54-1.418 1.35-.902l9.457 5.157c.676.387 1.351 1.547 1.351 2.45 0 .773-.675 1.289-1.35.902z" fill="#EDF9F6"/><path d="M74.022 62.274c.582-.32.57-1.38-.028-2.367-.597-.986-1.552-1.526-2.133-1.206-.582.32-.57 1.38.027 2.367.597.986 1.553 1.526 2.134 1.206zm5.824 2.098c0 .903-.675 1.29-1.486.903-.81-.516-1.486-1.676-1.486-2.579 0-.902.675-1.289 1.486-.902.81.516 1.486 1.676 1.486 2.578z" fill="#00A377"/><path d="M85.386 67.338c0 .903-.675 1.29-1.486.903-.81-.516-1.486-1.676-1.486-2.579 0-.902.676-1.29 1.486-.902.81.515 1.486 1.676 1.486 2.578z" fill="#EDF9F6"/><path d="M90.79 70.432c0 .902-.676 1.29-1.487.902-.81-.515-1.486-1.676-1.486-2.578 0-.903.676-1.29 1.487-.903.81.387 1.486 1.547 1.486 2.579zm22.967 15.343l-3.242-1.805c-.541-.258-.811-.903-.811-1.547v-3.224c0-.644.405-.902.811-.644l3.242 1.805c.541.258.811.902.811 1.547v3.223c.135.645-.27.902-.811.645z" fill="#00A377"/><path d="M118.351 116.716L51.34 79.715c-1.486-.774-2.702-3.095-2.702-4.9V62.569c0-1.934 1.216-2.837 2.702-1.934l67.011 37.001c1.486.774 2.702 3.094 2.702 4.899v12.248c0 1.805-1.216 2.707-2.702 1.934z" fill="#006A4E"/><path opacity=".4" d="M116.459 112.332l-63.228-34.81c-.81-.386-1.351-1.546-1.351-2.578v-9.153c0-1.032.675-1.418 1.35-1.032l63.229 34.81c.811.387 1.351 1.547 1.351 2.578v9.154c0 1.031-.54 1.547-1.351 1.031z" fill="#EDF9F6"/><path d="M66.471 80.102l-9.457-5.157c-.675-.387-1.35-1.547-1.35-2.45 0-.902.54-1.418 1.35-.902l9.457 5.156c.676.387 1.351 1.548 1.351 2.45 0 .903-.675 1.418-1.35.903z" fill="#EDF9F6"/><path d="M74.443 82.938c0 .902-.675 1.289-1.486.902-.81-.516-1.486-1.676-1.486-2.578 0-.903.675-1.29 1.486-.903.81.387 1.486 1.547 1.486 2.579z" fill="#fff"/><path d="M79.846 85.903c0 .902-.675 1.289-1.486.902-.81-.516-1.486-1.676-1.486-2.578 0-.903.675-1.29 1.486-.903.81.516 1.486 1.676 1.486 2.579z" fill="#00A377"/><path d="M85.386 88.868c0 .903-.675 1.29-1.486.903-.81-.516-1.486-1.676-1.486-2.579 0-.902.676-1.289 1.486-.902.81.387 1.486 1.676 1.486 2.578z" fill="#EDF9F6"/><path d="M90.38 92.835c.581-.32.569-1.38-.028-2.366-.597-.987-1.552-1.527-2.134-1.206-.582.32-.57 1.38.028 2.366.597.987 1.552 1.527 2.134 1.206zm23.377 14.47l-3.242-1.805c-.541-.258-.811-.903-.811-1.547v-3.223c0-.645.405-.903.811-.645l3.242 1.805c.541.258.811.903.811 1.547v3.223c.135.645-.27.903-.811.645z" fill="#00A377"/><path d="M118.351 138.117L51.34 101.245c-1.486-.774-2.702-3.094-2.702-4.9V84.099c0-1.934 1.216-2.836 2.702-1.934l67.011 37.001c1.486.774 2.702 3.095 2.702 4.899v12.248c0 1.805-1.216 2.708-2.702 1.805z" fill="#006A4E"/><path opacity=".4" d="M116.459 133.863l-63.228-34.81c-.81-.387-1.351-1.547-1.351-2.578V87.32c0-1.031.675-1.418 1.35-1.031l63.229 34.809c.811.387 1.351 1.547 1.351 2.579v9.153c0 1.032-.54 1.547-1.351 1.032z" fill="#EDF9F6"/><path d="M66.471 101.632l-9.457-5.157c-.675-.387-1.35-1.547-1.35-2.45 0-.902.54-1.418 1.35-.902l9.457 5.157c.676.387 1.351 1.547 1.351 2.449 0 .903-.675 1.419-1.35.903z" fill="#EDF9F6"/><path d="M74.443 104.468c0 .903-.675 1.289-1.486.903-.81-.516-1.486-1.676-1.486-2.579 0-.902.675-1.289 1.486-.902.81.386 1.486 1.547 1.486 2.578z" fill="#fff"/><path d="M79.846 107.433c0 .902-.675 1.289-1.486.902-.81-.515-1.486-1.676-1.486-2.578 0-.903.675-1.289 1.486-.903.81.516 1.486 1.676 1.486 2.579z" fill="#00A377"/><path d="M85.386 110.399c0 .902-.675 1.289-1.486.902-.81-.515-1.486-1.676-1.486-2.578 0-.903.676-1.29 1.486-.903.81.516 1.486 1.676 1.486 2.579z" fill="#EDF9F6"/><path d="M90.79 113.492c0 .903-.676 1.29-1.487.903-.81-.516-1.486-1.676-1.486-2.579 0-.902.676-1.289 1.487-.902.81.387 1.486 1.547 1.486 2.578zm22.967 15.343l-3.242-1.805c-.541-.258-.811-.902-.811-1.547v-3.223c0-.645.405-.902.811-.645l3.242 1.805c.541.258.811.903.811 1.547v3.224c.135.644-.27.902-.811.644z" fill="#00A377"/><path d="M118.351 159.647L51.34 122.775c-1.486-.773-2.702-3.094-2.702-4.899v-12.248c0-1.934 1.216-2.836 2.702-1.934l67.011 36.873c1.486.773 2.702 3.094 2.702 4.899v12.248c0 1.933-1.216 2.836-2.702 1.933z" fill="#006A4E"/><path opacity=".4" d="M116.459 155.393l-63.228-34.81c-.81-.386-1.351-1.547-1.351-2.578v-9.154c0-1.031.675-1.418 1.35-1.031l63.229 34.81c.811.386 1.351 1.547 1.351 2.578v9.154c0 1.031-.54 1.418-1.351 1.031z" fill="#EDF9F6"/><path d="M66.471 123.162l-9.457-5.157c-.675-.387-1.35-1.547-1.35-2.449 0-.903.54-1.419 1.35-.903l9.457 5.157c.676.387 1.351 1.547 1.351 2.45 0 .902-.675 1.418-1.35.902z" fill="#EDF9F6"/><path d="M74.443 125.869c0 .903-.675 1.29-1.486.903-.81-.516-1.486-1.676-1.486-2.579 0-.902.675-1.289 1.486-.902.81.516 1.486 1.676 1.486 2.578zm4.98 3.987c.581-.321.569-1.38-.028-2.367-.597-.986-1.552-1.526-2.134-1.206-.581.321-.57 1.38.028 2.367.597.986 1.552 1.526 2.134 1.206z" fill="#00A377"/><path d="M85.386 131.929c0 .902-.675 1.289-1.486.902-.81-.515-1.486-1.676-1.486-2.578 0-.902.676-1.289 1.486-.902.81.515 1.486 1.676 1.486 2.578z" fill="#EDF9F6"/><path d="M90.79 134.894c0 .902-.676 1.289-1.487.902-.81-.515-1.486-1.676-1.486-2.578 0-.903.676-1.289 1.487-.903.81.516 1.486 1.676 1.486 2.579z" fill="#00A377"/><path d="M113.757 150.365l-3.242-1.805c-.541-.257-.811-.902-.811-1.547v-3.223c0-.644.405-.902.811-.644l3.242 1.805c.541.257.811.902.811 1.547v3.223c.135.516-.27.902-.811.644z" fill="#EDF9F6"/><path d="M118.351 181.178L51.34 144.305c-1.486-.773-2.702-3.094-2.702-4.899v-12.247c0-1.934 1.216-2.837 2.702-1.934l67.011 37.001c1.486.773 2.702 3.094 2.702 4.899v12.248c0 1.805-1.216 2.707-2.702 1.805z" fill="#006A4E"/><path opacity=".4" d="M116.459 176.923l-63.228-34.809c-.81-.387-1.351-1.547-1.351-2.579v-9.153c0-1.032.675-1.419 1.35-1.032l63.229 34.81c.811.387 1.351 1.547 1.351 2.578v9.154c0 1.031-.54 1.418-1.351 1.031z" fill="#EDF9F6"/><path d="M66.471 144.692l-9.457-5.157c-.675-.386-1.35-1.547-1.35-2.449 0-.903.54-1.418 1.35-.903l9.457 5.157c.676.387 1.351 1.547 1.351 2.45 0 .902-.675 1.289-1.35.902z" fill="#EDF9F6"/><path d="M74.443 147.4c0 .902-.675 1.289-1.486.902-.81-.516-1.486-1.676-1.486-2.578 0-.903.675-1.29 1.486-.903.81.516 1.486 1.676 1.486 2.579z" fill="#00A377"/><path d="M79.846 150.493c0 .903-.675 1.29-1.486.903-.81-.516-1.486-1.676-1.486-2.579 0-.902.675-1.289 1.486-.902.81.516 1.486 1.547 1.486 2.578z" fill="#fff"/><path d="M85.386 153.459c0 .903-.675 1.289-1.486.903-.81-.516-1.486-1.676-1.486-2.579 0-.902.676-1.289 1.486-.902.81.515 1.486 1.676 1.486 2.578z" fill="#EDF9F6"/><path d="M90.79 156.424c0 .903-.676 1.289-1.487.903-.81-.516-1.486-1.676-1.486-2.579 0-.902.676-1.289 1.487-.902.81.515 1.486 1.676 1.486 2.578z" fill="#fff"/><path d="M113.757 171.766l-3.242-1.805c-.541-.258-.811-.903-.811-1.547v-3.223c0-.645.405-.903.811-.645l3.242 1.805c.541.258.811.902.811 1.547v3.223c.135.645-.27 1.032-.811.645z" fill="#EDF9F6"/><path d="M118.351 202.709L51.34 165.837c-1.486-.774-2.702-3.095-2.702-4.899V148.69c0-1.934 1.216-2.837 2.702-1.934l67.011 37.001c1.486.774 2.702 3.094 2.702 4.899v12.248c0 1.805-1.216 2.707-2.702 1.805z" fill="#006A4E"/><path opacity=".4" d="M116.459 198.454l-63.228-34.809c-.81-.387-1.351-1.547-1.351-2.578v-9.154c0-1.032.675-1.418 1.35-1.032l63.229 34.81c.811.387 1.351 1.547 1.351 2.578v9.154c0 1.032-.54 1.418-1.351 1.031z" fill="#EDF9F6"/><path d="M66.471 166.224l-9.457-5.157c-.675-.387-1.35-1.547-1.35-2.45 0-.902.54-1.418 1.35-.902l9.457 5.157c.676.386 1.351 1.547 1.351 2.449 0 .903-.675 1.289-1.35.903z" fill="#EDF9F6"/><path d="M74.04 169.92c.582-.32.57-1.38-.027-2.366-.597-.987-1.552-1.527-2.134-1.206-.581.32-.569 1.38.028 2.366.597.987 1.552 1.527 2.134 1.206zm5.806 2.105c0 .902-.675 1.289-1.486.902-.81-.516-1.486-1.676-1.486-2.578 0-.903.675-1.29 1.486-.903.81.387 1.486 1.547 1.486 2.579z" fill="#00A377"/><path d="M85.386 174.991c0 .902-.675 1.289-1.486.902-.81-.516-1.486-1.676-1.486-2.579 0-.902.676-1.289 1.486-.902.81.387 1.486 1.676 1.486 2.579z" fill="#EDF9F6"/><path d="M90.79 177.955c0 .903-.676 1.29-1.487.903-.81-.516-1.486-1.676-1.486-2.579 0-.902.676-1.289 1.487-.902.81.516 1.486 1.676 1.486 2.578zm22.967 15.342l-3.242-1.805c-.541-.258-.811-.902-.811-1.547v-3.223c0-.645.405-.903.811-.645l3.242 1.805c.541.258.811.903.811 1.547v3.223c.135.645-.27.903-.811.645z" fill="#00A377"/><path d="M118.351 224.238L51.34 187.366c-1.486-.774-2.702-3.094-2.702-4.899v-12.248c0-1.934 1.216-2.836 2.702-1.934l67.011 37.001c1.486.774 2.702 3.095 2.702 4.9v12.247c0 1.805-1.216 2.708-2.702 1.805z" fill="#006A4E"/><path opacity=".4" d="M116.459 219.984l-63.228-34.81c-.81-.386-1.351-1.547-1.351-2.578v-9.154c0-1.031.675-1.418 1.35-1.031l63.229 34.809c.811.387 1.351 1.547 1.351 2.579v9.153c0 1.032-.54 1.419-1.351 1.032z" fill="#EDF9F6"/><path d="M66.471 187.753l-9.457-5.157c-.675-.387-1.35-1.547-1.35-2.45 0-.902.54-1.418 1.35-.902l9.457 5.157c.676.387 1.351 1.547 1.351 2.449 0 .903-.675 1.29-1.35.903z" fill="#EDF9F6"/><path d="M76.198 191.621c0 1.804-1.35 2.449-2.972 1.547-1.621-.903-2.972-3.095-2.972-4.771 0-1.805 1.35-2.449 2.972-1.547 1.621.903 2.972 3.095 2.972 4.771z" fill="#fff"/><path d="M87.547 197.938c0 .902-.675 1.289-1.486.902-.81-.515-1.486-1.676-1.486-2.578 0-.903.676-1.289 1.486-.903.676.516 1.486 1.676 1.486 2.579z" fill="#00A377"/><path d="M92.952 201.032c0 .902-.676 1.289-1.486.902-.811-.516-1.486-1.676-1.486-2.578 0-.903.675-1.29 1.486-.903.81.387 1.486 1.547 1.486 2.579z" fill="#EDF9F6"/><path d="M98.356 203.997c0 .903-.675 1.29-1.486.903-.81-.516-1.486-1.676-1.486-2.579 0-.902.675-1.289 1.486-.902.81.516 1.486 1.676 1.486 2.578z" fill="#00A377"/><path d="M113.757 214.826l-3.242-1.805c-.541-.257-.811-.902-.811-1.547v-3.223c0-.644.405-.902.811-.644l3.242 1.805c.541.257.811.902.811 1.547v3.223c.135.644-.27.902-.811.644z" fill="#EDF9F6"/><path d="M113.892 278.258c-.27 0-.405 0-.675-.129l-76.199-41.385c-.945-.516-1.486-1.418-1.486-2.45 0-1.031.54-1.933 1.486-2.449l32.695-18.436c1.216-.645 1.892-1.805 1.892-3.094v-20.242c0-.773.54-1.289 1.35-1.289.811 0 1.352.516 1.352 1.289v20.242a5.928 5.928 0 01-3.243 5.285L38.37 234.037c-.135 0-.135.128-.135.257s0 .129.135.258l76.199 41.385c.675.387.81 1.16.54 1.805-.27.387-.675.516-1.216.516z" fill="#006A4E"/><path d="M99.455 273.337l3.629-6.039-13.596-7.439-3.628 6.04 13.595 7.438z" fill="#006A4E"/><path d="M85.115 264.334c0-1.547 1.081-3.481 2.567-4.254 1.351-.774 2.567-.129 2.567 1.418s-1.08 3.481-2.567 4.254c-1.486.645-2.567.129-2.567-1.418zm32.117 21.207l5.846-9.73-21.213-11.607-5.847 9.73 21.214 11.607z" fill="#006A4E"/><path d="M100.787 266.01l-4.593-2.449c-1.892 1.289-3.378 3.738-3.648 6.059l4.593 2.45c1.892-1.29 3.378-3.739 3.648-6.06z" fill="#45BB9B"/><path d="M94.708 271.296c0-2.578 1.892-5.544 4.188-6.833 2.297-1.289 4.188-.258 4.188 2.321 0 2.578-1.891 5.544-4.188 6.833-2.296 1.16-4.188.129-4.188-2.321z" fill="#006A4E"/><path d="M89.438 262.658c-.675-.386-.675-.902 0-1.289.676-.387 1.757-.387 2.432 0 .676.387.676.903 0 1.289-.81.387-1.891.387-2.432 0z" fill="#EDF9F6"/><path d="M82.935 282.835l3.629-6.039-13.596-7.439-3.629 6.04 13.596 7.438z" fill="#006A4E"/><path d="M68.633 273.745c0-1.547 1.08-3.481 2.567-4.254 1.35-.774 2.567-.129 2.567 1.418s-1.081 3.481-2.567 4.254c-1.486.774-2.567.129-2.567-1.418zm32.08 21.292l5.847-9.73L85.346 273.7l-5.847 9.73 21.214 11.607z" fill="#006A4E"/><path d="M84.305 275.55l-4.594-2.449c-1.891 1.289-3.377 3.738-3.647 6.059l4.593 2.45c1.892-1.29 3.378-3.868 3.648-6.06z" fill="#45BB9B"/><path d="M78.226 280.836c0-2.578 1.891-5.543 4.188-6.833 2.297-1.289 4.188-.258 4.188 2.321 0 2.578-1.891 5.544-4.188 6.833-2.297 1.16-4.188.129-4.188-2.321z" fill="#006A4E"/><path d="M72.821 272.198c-.675-.386-.675-.902 0-1.289.676-.387 1.757-.387 2.432 0s.675.903 0 1.289c-.675.387-1.756.387-2.432 0z" fill="#EDF9F6"/><path d="M346.406 162.484h-.27c-.676-.129-1.216-.903-.946-1.547l13.24-54.535c.135-.645.946-1.16 1.622-1.032.675.129 1.216.903 1.08 1.548l-13.24 54.534c-.27.645-.81 1.032-1.486 1.032zm-17.563-3.868h-.271c-.675-.129-1.216-.903-1.08-1.547l13.24-54.535c.135-.645.945-1.161 1.621-1.032.675.129 1.216.903 1.081 1.547l-13.24 54.535c-.135.645-.676 1.032-1.351 1.032zm-17.429-3.867h-.27c-.676-.129-1.216-.903-1.081-1.548l13.24-54.534c.135-.645.946-1.16 1.621-1.032.676.129 1.216.903 1.081 1.547l-13.24 54.535c-.135.645-.811 1.032-1.351 1.032z" fill="#006A4E"/><path d="M324.974 113.319l-7.103-1.589-3.576 14.561 7.103 1.589 3.576-14.561z" fill="#006A4E"/><path d="M320.06 128.964c-1.621.387-3.783 0-4.999-1.16-1.216-1.032-.945-2.321.676-2.708s3.783 0 4.999 1.161c1.216 1.031.81 2.191-.676 2.707zm12.088-35.414l-11.444-2.559-5.58 22.719 11.443 2.56 5.581-22.72z" fill="#006A4E"/><path d="M317.358 114.137l-1.216 4.899c1.891 1.419 4.728 2.063 7.025 1.548l1.216-4.9c-1.892-1.418-4.729-2.062-7.025-1.547z" fill="#45BB9B"/><path d="M324.248 118.134c-2.567.774-6.215-.128-8.106-1.805-1.892-1.676-1.486-3.738 1.081-4.512 2.567-.773 6.214.129 8.106 1.805 2.026 1.805 1.486 3.739-1.081 4.512z" fill="#006A4E"/><path d="M317.223 125.483c-.135.773-.811.902-1.351.386-.54-.515-.811-1.547-.675-2.191.135-.645.81-.903 1.351-.387.54.516.81 1.418.675 2.192z" fill="#EDF9F6"/><path d="M341.205 122.468l-7.102-1.589-3.577 14.56 7.103 1.589 3.576-14.56z" fill="#006A4E"/><path d="M336.273 138.116c-1.621.387-3.783 0-4.999-1.16-1.216-1.031-.946-2.321.676-2.707 1.621-.387 3.783 0 4.999 1.16 1.216 1.031.945 2.32-.676 2.707zm12.107-35.417l-11.443-2.559-5.581 22.719 11.444 2.559 5.58-22.719z" fill="#006A4E"/><path d="M333.571 123.29l-1.216 4.899c1.892 1.418 4.729 2.063 7.026 1.547l1.216-4.899c-1.757-1.289-4.729-1.934-7.026-1.547z" fill="#45BB9B"/><path d="M340.597 127.416c-2.567.773-6.215-.129-8.107-1.805-1.891-1.676-1.486-3.739 1.081-4.513 2.567-.773 6.215.129 8.106 1.805 1.892 1.805 1.351 3.739-1.08 4.513z" fill="#006A4E"/><path d="M333.436 134.765c-.135.773-.811.902-1.351.387-.54-.516-.811-1.548-.676-2.192.136-.774.811-.903 1.351-.387.541.387.811 1.418.676 2.192z" fill="#EDF9F6"/><path d="M357.687 131.636l-7.103-1.589-3.576 14.56 7.103 1.589 3.576-14.56z" fill="#006A4E"/><path d="M352.755 147.272c-1.621.386-3.782 0-4.998-1.161-1.216-1.031-.946-2.32.675-2.707s3.783 0 4.999 1.16c1.081 1.032.811 2.321-.676 2.708zm12.108-35.406l-11.444-2.559-5.58 22.719 11.443 2.559 5.581-22.719z" fill="#006A4E"/><path d="M350.054 132.444l-1.216 4.9c1.891 1.418 4.728 2.062 7.025 1.547l1.216-4.899c-1.891-1.29-4.728-1.934-7.025-1.548z" fill="#45BB9B"/><path d="M356.944 136.57c-2.567.774-6.215-.129-8.106-1.805s-1.486-3.739 1.081-4.512c2.567-.774 6.215.129 8.106 1.805 2.027 1.805 1.486 3.738-1.081 4.512z" fill="#006A4E"/><path d="M349.918 143.919c-.135.774-.81.903-1.351.387-.54-.516-.81-1.547-.675-2.192.135-.773.81-.902 1.351-.387.54.387.811 1.419.675 2.192z" fill="#EDF9F6"/><path d="M238.864 403.056L82.008 316.677c-4.458-2.449-3.917-6.704 1.217-9.54l106.866-58.79c5.134-2.836 12.835-3.094 17.294-.644l156.855 86.508c4.458 2.449 3.918 6.704-1.216 9.54l-106.867 58.79c-4.999 2.707-12.835 2.965-17.293.515z" fill="#A5C7BE"/><path d="M401.123 180.92l-156.99-86.508c-1.756-1.032-3.648-1.16-5.269-.645l-.27.13h-.135l-5.675 2.062 5.134 2.32c0 .13 0 .13-.135.258l-25.535 111.004c-1.215 5.544 1.216 11.99 5.675 14.44l153.072 84.316-.54 6.188 6.214-2.32c2.027-.903 3.783-3.094 4.459-6.06l25.534-111.003c1.351-5.286-1.08-11.732-5.539-14.182z" fill="#00A377"/><path d="M401.123 180.92L244.132 94.412c-1.756-1.032-3.647-1.16-5.269-.645l-.27.13h-.135l-5.674 2.062 5.134 2.32c0 .13 0 .13-.136.258l-16.887 73.229 76.738 57.114 108.218-42.029c-.81-2.579-2.567-4.771-4.728-5.931z" fill="#45BB9B"/><path d="M395.178 197.938l11.889-4.899c.27-4.384-1.756-9.025-4.863-11.475l-18.915 7.607 11.889 8.767z" fill="#086B50"/><path d="M365.185 314.098L208.33 227.59c-4.459-2.449-7.026-8.896-5.675-14.439l25.535-111.004c1.216-5.544 5.945-8.122 10.403-5.673l156.855 86.508c4.459 2.45 7.026 8.896 5.675 14.44l-25.535 111.004c-1.351 5.672-5.945 8.122-10.403 5.672z" fill="#EDF9F6"/><path d="M361.808 305.847l-147.533-81.222c-4.053-2.191-6.35-8.122-5.269-13.279l23.373-101.592c1.216-5.028 5.404-7.349 9.457-5.157l147.533 81.222c4.053 2.192 6.35 8.122 5.269 13.279l-23.373 101.593c-1.216 5.156-5.404 7.477-9.457 5.156z" fill="#fff"/><path d="M361.808 305.847l-147.533-81.222c-4.053-2.191-6.35-8.122-5.269-13.279l23.373-101.592c1.216-5.028 5.404-7.349 9.457-5.157l147.533 81.222c4.053 2.192 6.35 8.122 5.269 13.279l-23.373 101.593c-1.216 5.156-5.404 7.477-9.457 5.156z" fill="#fff"/><path d="M367.346 317.838l-21.481-2.708-138.481-76.323c-4.458-2.449-12.159-2.192-17.293.645l-98.085 54.019-12.97-1.676v6.962c-.135 1.676.945 3.223 2.972 4.383l156.855 86.508c4.459 2.45 12.159 2.192 17.293-.644l106.867-58.79c2.837-1.547 4.323-3.609 4.188-5.543v-6.833h.135z" fill="#00A377"/><path d="M263.317 269.749l-9.863-5.415H145.372l-53.366 29.395-12.97-1.676v6.962c-.135 1.676.945 3.223 2.972 4.383l156.855 86.508c2.297 1.289 5.674 1.805 8.917 1.547l15.537-121.704z" fill="#45BB9B"/><path d="M84.71 292.697l-5.809-.773v6.962c-.135 1.676.946 3.223 2.972 4.383l2.702 1.547v-12.119h.135z" fill="#006A4E"/><path d="M240.484 390.551c4.189 1.547 10.268 1.16 14.727-.902V373.92h-14.727v16.631z" fill="#086B50"/><path d="M238.864 382.815L82.008 296.307c-4.458-2.45-3.917-6.704 1.217-9.54l106.866-58.79c5.134-2.836 12.835-3.094 17.294-.644l156.855 86.508c4.458 2.449 3.918 6.704-1.216 9.54L256.157 382.17c-4.999 2.708-12.835 3.095-17.293.645z" fill="#EDF9F6"/><path d="M363.024 320.674l-106.867 58.789c-5.134 2.837-12.835 3.095-17.294.645L82.008 293.729c-1.486-.774-2.296-1.805-2.702-2.836-.675 2.062.135 3.996 2.702 5.414l156.855 86.508c4.459 2.45 12.16 2.192 17.294-.644l106.867-58.79c3.377-1.933 4.863-4.512 4.053-6.704-.541 1.419-1.892 2.837-4.053 3.997z" fill="#fff"/><path d="M148.75 267.686l-7.161-3.868c-.54-.258-.54-.902.135-1.289l8.377-4.641c.675-.387 1.621-.387 2.161-.129l7.161 3.868c.54.257.54.902-.135 1.289l-8.377 4.641c-.54.387-1.621.516-2.161.129zm10.943 6.06l-7.161-3.868c-.54-.258-.54-.903.136-1.289l8.376-4.642c.675-.386 1.621-.386 2.162-.129l7.16 3.868c.54.258.54.903-.135 1.289l-8.376 4.642c-.541.386-1.622.515-2.162.129zm10.943 6.059l-7.16-3.868c-.541-.257-.541-.902.135-1.289l8.376-4.641c.676-.387 1.622-.387 2.162-.129l7.16 3.868c.541.258.541.902-.135 1.289l-8.376 4.641c-.541.387-1.621.387-2.162.129zm15.267-5.028l-7.161-3.868c-.54-.258-.54-.903.135-1.289l7.026-3.868c.675-.387 1.621-.387 2.162-.129l7.16 3.868c.54.258.54.902-.135 1.289l-7.025 3.868c-.676.387-1.622.515-2.162.129zm10.943 6.059l-7.16-3.867c-.541-.258-.541-.903.135-1.29l7.025-3.867c.676-.387 1.621-.387 2.162-.129l7.16 3.867c.541.258.541.903-.135 1.29l-7.025 3.867c-.676.387-1.621.516-2.162.129zm10.944 6.06l-7.161-3.868c-.54-.258-.54-.902.135-1.289l7.026-3.868c.675-.387 1.621-.387 2.161-.129l7.161 3.868c.54.258.54.902-.135 1.289l-7.026 3.868c-.675.387-1.621.387-2.161.129zm10.943 6.058l-7.161-3.867c-.54-.258-.54-.903.136-1.29l7.025-3.867c.675-.387 1.621-.387 2.162-.129l7.16 3.868c.54.257.54.902-.135 1.289l-7.025 3.867c-.541.387-1.622.387-2.162.129zm10.943 6.06l-7.16-3.868c-.541-.258-.541-.902.135-1.289l7.025-3.868c.676-.386 1.621-.386 2.162-.129l7.16 3.868c.541.258.541.903-.135 1.289l-7.025 3.868c-.541.387-1.621.387-2.162.129zm10.944 6.06l-7.161-3.868c-.54-.258-.54-.903.135-1.289l7.026-3.868c.675-.387 1.621-.387 2.161-.129l7.161 3.868c.54.257.54.902-.135 1.289l-7.026 3.868c-.54.386-1.621.386-2.161.129zm10.943 5.93l-7.16-3.868c-.541-.257-.541-.902.135-1.289l7.025-3.867c.676-.387 1.621-.387 2.162-.129l7.16 3.867c.541.258.541.903-.135 1.29l-7.025 3.867c-.541.516-1.486.516-2.162.129zm11.079 6.06l-7.16-3.868c-.541-.258-.541-.902.135-1.289l7.025-3.868c.676-.387 1.621-.387 2.162-.129l7.16 3.868c.541.258.541.902-.135 1.289l-7.025 3.868c-.676.387-1.621.516-2.162.129zm10.943 6.059l-7.16-3.867c-.54-.258-.54-.903.135-1.29l7.025-3.867c.676-.387 1.622-.387 2.162-.129l7.161 3.867c.54.258.54.903-.135 1.29l-7.026 3.867c-.675.387-1.621.516-2.162.129zm10.944 6.06l-7.161-3.868c-.54-.258-.54-.902.135-1.289l7.026-3.868c.675-.387 1.621-.387 2.161-.129l7.161 3.868c.54.258.54.902-.135 1.289l-7.026 3.868c-.675.387-1.621.387-2.161.129z" fill="#00A377"/><path d="M201.98 271.941l-7.16-3.868c-.541-.258-.541-.902.135-1.289l7.025-3.868c.676-.387 1.621-.387 2.162-.129l7.16 3.868c.541.258.541.902-.135 1.289l-7.025 3.868c-.541.387-1.622.516-2.162.129zm-11.078-6.06l-7.161-3.868c-.54-.257-.54-.902.136-1.289l7.025-3.868c.675-.386 1.621-.386 2.162-.128l7.16 3.867c.54.258.54.903-.135 1.29l-7.025 3.867c-.676.387-1.622.387-2.162.129z" fill="#45BB9B"/><path d="M179.688 259.692l-15.267-8.38c-.54-.258-.54-.902.135-1.289l7.026-3.868c.675-.386 1.621-.386 2.161-.129l15.267 8.38c.54.258.54.903-.135 1.29l-7.026 3.867c-.54.387-1.621.387-2.161.129zm7.836-7.477l-12.429-6.833c-.54-.258-.541-.903.135-1.29l7.025-3.867c.676-.387 1.622-.387 2.162-.129l12.43 6.833c.54.258.54.902-.136 1.289l-7.025 3.868c-.675.386-1.621.386-2.162.129z" fill="#00A377"/><path d="M212.923 277.999l-7.16-3.867c-.541-.258-.541-.903.135-1.29l7.025-3.867c.676-.387 1.622-.387 2.162-.129l7.161 3.867c.54.258.54.903-.136 1.29l-7.025 3.867c-.54.387-1.621.387-2.162.129z" fill="#45BB9B"/><path d="M223.867 284.059l-7.161-3.868c-.54-.258-.54-.902.135-1.289l7.026-3.868c.675-.387 1.621-.387 2.161-.129l7.161 3.868c.54.258.54.902-.135 1.289l-7.026 3.868c-.54.387-1.486.387-2.161.129zm11.079 6.06l-7.161-3.868c-.54-.258-.54-.903.135-1.289l7.026-3.868c.675-.387 1.621-.387 2.161-.129l7.161 3.868c.54.257.54.902-.135 1.289l-7.026 3.868c-.675.386-1.621.386-2.161.129zm10.943 6.059l-7.16-3.868c-.541-.258-.541-.902.135-1.289l7.025-3.868c.676-.386 1.621-.386 2.162-.129l7.16 3.868c.541.258.541.903-.135 1.289l-7.025 3.868c-.676.387-1.621.387-2.162.129zm10.944 5.931l-7.161-3.868c-.54-.258-.54-.902.135-1.289l7.026-3.868c.675-.387 1.621-.387 2.161-.129l7.161 3.868c.54.258.54.902-.136 1.289l-7.025 3.868c-.675.515-1.621.516-2.161.129zm10.943 6.059l-7.161-3.867c-.54-.258-.54-.903.136-1.29l7.025-3.867c.675-.387 1.621-.387 2.162-.129l7.16 3.867c.54.258.54.903-.135 1.29l-7.025 3.867c-.541.387-1.622.516-2.162.129zm10.943 6.059l-7.16-3.868c-.541-.258-.541-.902.135-1.289l7.025-3.868c.676-.387 1.621-.387 2.162-.129l7.16 3.868c.541.258.541.902-.135 1.289l-7.025 3.868c-.541.387-1.621.516-2.162.129zm10.944 6.06l-7.161-3.867c-.54-.258-.54-.903.135-1.29l7.026-3.867c.675-.387 1.621-.387 2.161-.129l7.161 3.868c.54.257.54.902-.135 1.289l-7.026 3.868c-.54.386-1.486.386-2.161.128zm10.943 6.059l-7.161-3.868c-.54-.258-.54-.902.136-1.289l7.025-3.868c.675-.386 1.621-.386 2.162-.129l7.16 3.868c.541.258.541.903-.135 1.289l-7.025 3.868c-.541.387-1.487.387-2.162.129zm19.59 10.701l-15.537-8.509c-.54-.258-.54-.903.135-1.289l7.026-3.868c.675-.387 1.621-.387 2.162-.129l15.536 8.509c.541.258.541.902-.135 1.289l-7.025 3.868c-.676.387-1.621.516-2.162.129zm21.346-11.732l-13.105-7.22c-.541-.257-.541-.902.135-1.289l7.025-3.867c.676-.387 1.621-.387 2.162-.129l13.105 7.219c.54.258.54.903-.135 1.29l-7.026 3.867c-.675.387-1.621.387-2.161.129zm-109.434-48.476l-7.161-3.868c-.54-.257-.54-.902.136-1.289l7.025-3.868c.675-.386 1.621-.386 2.162-.128l7.16 3.867c.54.258.54.903-.135 1.29l-7.025 3.867c-.541.387-1.487.387-2.162.129zm-11.213-6.187l-7.16-3.868c-.541-.258-.541-.903.135-1.289l7.025-3.868c.676-.387 1.621-.387 2.162-.129l7.16 3.868c.541.258.541.902-.135 1.289l-7.025 3.868c-.541.387-1.622.386-2.162.129z" fill="#00A377"/><path d="M209.681 264.462l-7.16-3.867c-.541-.258-.541-.903.135-1.29l7.025-3.867c.676-.387 1.621-.387 2.162-.129l7.16 3.867c.541.258.541.903-.135 1.29l-7.025 3.867c-.541.387-1.621.387-2.162.129z" fill="#45BB9B"/><path d="M198.467 258.275l-7.16-3.868c-.541-.258-.541-.902.135-1.289l7.025-3.868c.676-.387 1.622-.387 2.162-.129l7.161 3.868c.54.258.54.902-.136 1.289l-7.025 3.868c-.676.387-1.621.387-2.162.129zm44.584 24.624l-7.16-3.868c-.541-.258-.541-.902.135-1.289l7.025-3.868c.676-.387 1.622-.387 2.162-.129l7.16 3.868c.541.258.541.902-.135 1.289l-7.025 3.868c-.54.387-1.486.387-2.162.129zm11.079 6.059l-7.16-3.867c-.54-.258-.541-.903.135-1.29l7.025-3.867c.676-.387 1.622-.387 2.162-.129l7.161 3.867c.54.258.54.903-.136 1.29l-7.025 3.867c-.675.387-1.621.387-2.162.129zm10.944 5.931l-7.161-3.868c-.54-.258-.54-.902.135-1.289l7.026-3.868c.675-.386 1.621-.386 2.161-.129l7.161 3.868c.54.258.54.903-.135 1.289l-7.026 3.868c-.675.387-1.621.516-2.161.129zm10.943 6.06l-7.16-3.868c-.541-.258-.541-.903.135-1.289l7.025-3.868c.676-.387 1.621-.387 2.162-.129l7.16 3.868c.541.258.541.902-.135 1.289l-7.025 3.868c-.541.386-1.622.515-2.162.129zm10.943 6.058l-7.16-3.868c-.54-.257-.54-.902.135-1.289l7.025-3.868c.676-.386 1.622-.386 2.162-.128l7.161 3.867c.54.258.54.903-.135 1.29l-7.026 3.867c-.54.387-1.621.516-2.162.129zm10.944 6.06l-7.161-3.868c-.54-.258-.54-.902.135-1.289l7.026-3.868c.675-.387 1.621-.387 2.161-.129l7.161 3.868c.54.258.54.902-.135 1.289l-7.026 3.868c-.54.387-1.621.387-2.161.129zm10.943 6.059l-7.16-3.867c-.541-.258-.541-.903.135-1.29l7.025-3.867c.676-.387 1.621-.387 2.162-.129l7.16 3.867c.541.258.541.903-.135 1.29l-7.025 3.867c-.541.387-1.486.387-2.162.129zm11.078 6.06l-7.16-3.868c-.541-.258-.541-.902.135-1.289l7.025-3.868c.676-.387 1.622-.387 2.162-.129l7.16 3.868c.541.258.541.902-.135 1.289l-7.025 3.868c-.676.387-1.621.387-2.162.129zm10.944 5.931l-7.161-3.868c-.54-.258-.54-.903.135-1.289l7.026-3.868c.675-.387 1.621-.387 2.161-.129l7.161 3.868c.54.257.54.902-.135 1.289l-7.026 3.868c-.675.515-1.621.515-2.161.129zm-104.435-69.233l-7.16-3.868c-.541-.257-.541-.902.135-1.289l7.025-3.868c.676-.386 1.621-.386 2.162-.129l7.16 3.868c.541.258.541.903-.135 1.289l-7.025 3.868c-.676.387-1.621.387-2.162.129zm-10.943-6.059l-7.161-3.868c-.54-.258-.54-.903.135-1.289l7.026-3.868c.675-.387 1.621-.387 2.161-.129l7.161 3.868c.54.257.54.902-.135 1.289l-7.026 3.868c-.675.386-1.621.515-2.161.129zm-10.944-5.931l-7.16-3.868c-.541-.258-.541-.902.135-1.289l7.025-3.868c.676-.387 1.622-.387 2.162-.129l7.161 3.868c.54.258.54.902-.136 1.289l-7.025 3.868c-.54.387-1.621.387-2.162.129zm-10.943-6.059l-7.16-3.867c-.541-.258-.541-.903.135-1.29l7.025-3.867c.676-.387 1.621-.387 2.162-.129l7.16 3.867c.541.258.541.903-.135 1.29l-7.025 3.867c-.541.387-1.486.387-2.162.129zm11.214-6.189l-7.161-3.867c-.54-.258-.54-.903.136-1.29l2.296-1.289c.676-.387 1.622-.387 2.162-.129l7.16 3.868c.541.258.541.902-.135 1.289l-2.296 1.29c-.541.386-1.487.515-2.162.128zm14.32 7.865l-7.16-3.868c-.541-.258-.541-.902.135-1.289l2.297-1.29c.675-.386 1.621-.386 2.161-.128l7.161 3.867c.54.258.54.903-.135 1.29l-2.297 1.289c-.676.387-1.621.387-2.162.129zm10.809 5.93l-7.161-3.867c-.54-.258-.54-.903.135-1.29l2.297-1.289c.676-.387 1.621-.387 2.162-.129l7.16 3.868c.541.258.541.902-.135 1.289l-2.297 1.289c-.54.516-1.621.516-2.161.129zm10.943 6.06l-7.16-3.868c-.541-.258-.541-.902.135-1.289l2.297-1.289c.675-.387 1.621-.387 2.161-.129l7.161 3.868c.54.257.54.902-.135 1.289l-2.297 1.289c-.676.387-1.621.387-2.162.129zm10.809 5.931l-7.161-3.868c-.54-.258-.54-.903.135-1.289l2.297-1.29c.676-.386 1.621-.386 2.162-.129l7.16 3.868c.541.258.541.903-.135 1.289l-2.297 1.29c-.54.386-1.621.515-2.161.129zm60.661 33.39l-7.161-3.868c-.54-.257-.54-.902.136-1.289l2.296-1.289c.676-.387 1.621-.387 2.162-.129l7.16 3.868c.541.258.541.902-.135 1.289l-2.297 1.289c-.54.516-1.621.516-2.161.129zm10.808 6.06l-7.16-3.868c-.54-.258-.54-.902.135-1.289l2.297-1.289c.675-.387 1.621-.387 2.162-.129l7.16 3.867c.54.258.54.903-.135 1.29l-2.297 1.289c-.54.387-1.486.387-2.162.129zm10.944 5.93l-7.161-3.867c-.54-.258-.54-.903.135-1.29l2.297-1.289c.676-.387 1.621-.387 2.162-.129l7.16 3.868c.541.258.541.903-.135 1.289l-2.297 1.29c-.675.386-1.621.515-2.161.128zm10.807 6.06l-7.16-3.868c-.54-.258-.54-.902.135-1.289l2.297-1.289c.675-.387 1.621-.387 2.161-.129l7.161 3.868c.54.257.54.902-.135 1.289l-2.297 1.289c-.54.387-1.621.387-2.162.129zm-107.542-46.928l-7.16-3.868c-.54-.258-.54-.903.135-1.289l7.025-3.868c.676-.387 1.622-.387 2.162-.129l7.161 3.868c.54.258.54.902-.136 1.289l-7.025 3.868c-.675.386-1.621.386-2.162.129zm10.944 6.059l-7.161-3.867c-.54-.258-.54-.903.135-1.29l7.026-3.867c.675-.387 1.621-.387 2.161-.129l7.161 3.867c.54.258.54.903-.135 1.29l-7.026 3.867c-.54.387-1.621.387-2.161.129zm10.943 5.931l-7.16-3.868c-.541-.258-.541-.902.135-1.289l7.025-3.868c.676-.387 1.621-.387 2.162-.129l7.16 3.868c.541.258.541.902-.135 1.289l-7.025 3.868c-.541.516-1.621.516-2.162.129zm10.944 6.059l-7.161-3.868c-.54-.258-.54-.903.135-1.289l7.026-3.868c.675-.387 1.621-.387 2.161-.129l7.161 3.868c.54.257.54.902-.135 1.289l-7.026 3.868c-.54.386-1.621.515-2.161.129zm10.943 6.059l-7.161-3.868c-.54-.257-.54-.902.136-1.289l7.025-3.868c.675-.386 1.621-.386 2.162-.129l7.16 3.868c.54.258.54.903-.135 1.289l-7.025 3.868c-.541.387-1.487.516-2.162.129zm11.078 6.06l-7.16-3.868c-.541-.258-.541-.903.135-1.289l7.025-3.868c.676-.387 1.621-.387 2.162-.129l7.16 3.868c.541.258.541.902-.135 1.289l-7.025 3.868c-.676.387-1.622.387-2.162.129zm10.943 6.059l-7.16-3.868c-.541-.257-.541-.902.135-1.289l7.025-3.867c.676-.387 1.622-.387 2.162-.129l7.161 3.867c.54.258.54.903-.136 1.29l-7.025 3.867c-.675.387-1.621.387-2.162.129zm10.944 6.06l-7.161-3.868c-.54-.258-.54-.902.135-1.289l7.026-3.868c.675-.387 1.621-.387 2.161-.129l7.161 3.868c.54.258.54.902-.135 1.289l-7.026 3.868c-.675.387-1.621.387-2.161.129zm10.944 6.059l-7.16-3.867c-.541-.258-.541-.903.135-1.29l7.025-3.867c.676-.387 1.621-.387 2.162-.129l7.16 3.867c.541.258.541.903-.135 1.29l-7.025 3.867c-.541.387-1.621.387-2.162.129zm-150.371-47.573l-20.941-11.474c-.54-.258-.54-.903.135-1.289l7.026-3.868c.675-.387 1.621-.387 2.161-.129l20.941 11.474c.541.258.541.903-.135 1.29l-7.025 3.867c-.676.387-1.621.387-2.162.129zm134.699 74.131l-20.942-11.474c-.54-.258-.54-.903.136-1.289l7.025-3.868c.675-.387 1.621-.387 2.162-.129l20.941 11.474c.54.258.54.903-.135 1.289l-7.026 3.868c-.675.387-1.621.516-2.161.129zm-43.909-10.829l-7.16-3.868c-.541-.258-.541-.902.135-1.289l8.376-4.641c.676-.387 1.621-.387 2.162-.129l7.16 3.868c.541.257.541.902-.135 1.289l-8.376 4.641c-.541.387-1.622.516-2.162.129zm-79.576-43.835l-11.349-6.317c-.541-.258-.541-.902.135-1.289l8.376-4.641c.676-.387 1.622-.387 2.162-.129l11.349 6.317c.54.258.54.902-.135 1.289l-8.377 4.641c-.675.387-1.621.387-2.161.129zm69.038 38.034l-11.349-6.318c-.54-.258-.54-.902.135-1.289l8.377-4.641c.675-.387 1.621-.387 2.161-.129l11.349 6.317c.54.258.54.903-.135 1.289l-8.377 4.642c-.54.386-1.621.515-2.161.129zm-53.231-29.266l-11.348-6.317c-.541-.258-.541-.903.135-1.29l8.376-4.641c.676-.387 1.621-.387 2.162-.129l11.348 6.317c.541.258.541.903-.135 1.29l-8.376 4.641c-.541.387-1.621.387-2.162.129z" fill="#00A377"/><path d="M201.169 284.704l49.313 27.203c.676.387.676.903 0 1.16l-8.512 4.771c-.675.386-1.621.386-2.161 0l-49.313-27.203 10.673-5.931zm94.979 58.274l7.971 4.383c.405.258.405.645-.135 1.031l-3.378 1.934c-.54.258-1.351.387-1.756.129l-7.971-4.383c-.406-.258-.406-.645.135-1.032l3.377-1.934c.541-.386 1.351-.386 1.757-.128zm-11.079-6.06l7.971 4.383c.405.258.405.645-.135 1.032l-3.378 1.934c-.54.258-1.351.386-1.756.129l-7.971-4.384c-.406-.258-.406-.644.135-1.031l3.377-1.934c.541-.387 1.351-.387 1.757-.129zm-10.944-6.06l7.971 4.384c.406.258.406.644-.135 1.031l-3.377 1.934c-.541.258-1.351.387-1.757.129l-7.971-4.383c-.405-.258-.405-.645.135-1.032l3.378-1.934c.54-.386 1.351-.386 1.756-.129zm17.024 2.708l7.971 4.384c.405.258.405.644-.135 1.031l-3.378 1.934c-.54.258-1.351.387-1.756.129l-7.971-4.383c-.406-.258-.406-.645.135-1.032l3.377-1.934c.541-.386 1.351-.386 1.757-.129z" fill="#00A377"/><path d="M276.693 148.432l-10.538-5.802c-.946-.516-1.487-1.805-1.216-2.965.27-1.161 1.216-1.547 2.296-1.032l10.539 5.802c.945.516 1.486 1.805 1.215 2.965-.405 1.16-1.351 1.547-2.296 1.032zm24.858 13.795l-15.537-8.509c-.946-.516-1.486-1.805-1.216-2.965.27-1.161 1.216-1.548 2.297-1.032l15.537 8.509c.945.516 1.486 1.805 1.216 2.965-.271 1.032-1.216 1.548-2.297 1.032zm-33.179-.645l-30.021-16.646c-1.42-.775-2.231-2.71-1.826-4.452.406-1.742 1.826-2.323 3.449-1.549l30.02 16.647c1.42.774 2.232 2.71 1.826 4.452-.406 1.548-2.028 2.322-3.448 1.548zm-7.262 23.1l-30.021-16.647c-1.42-.774-2.231-2.71-1.825-4.452.405-1.742 1.825-2.323 3.448-1.548l30.021 16.646c1.42.775 2.231 2.71 1.825 4.452-.405 1.549-2.028 2.323-3.448 1.549zm-8.069 23.099l-30.021-16.646c-1.42-.774-2.231-2.71-1.826-4.452.406-1.742 1.826-2.323 3.449-1.549l30.02 16.647c1.42.774 2.232 2.71 1.826 4.452-.406 1.548-2.029 2.323-3.448 1.548zm12.91-38.499l-30.021-16.646c-1.42-.774-2.231-2.71-1.826-4.452.406-1.742 1.826-2.323 3.449-1.549l30.02 16.647c1.42.774 2.232 2.71 1.826 4.452-.406 1.548-2.028 2.323-3.448 1.548zm-7.262 23.1l-30.021-16.647c-1.42-.774-2.231-2.709-1.825-4.452.405-1.742 1.825-2.322 3.448-1.548l30.021 16.647c1.42.774 2.231 2.709 1.825 4.452-.405 1.548-2.028 2.322-3.448 1.548zm-8.068 23.1L220.6 198.835c-1.42-.774-2.231-2.71-1.826-4.452.406-1.742 1.826-2.323 3.449-1.548l30.02 16.646c1.42.774 2.232 2.71 1.826 4.452-.406 1.549-2.028 2.323-3.448 1.549zm12.91-38.5l-30.021-16.647c-1.42-.774-2.231-2.71-1.825-4.452.405-1.742 1.825-2.323 3.448-1.548l30.021 16.646c1.419.774 2.231 2.71 1.825 4.452-.406 1.549-2.028 2.323-3.448 1.549zm-7.263 23.099l-30.021-16.646c-1.42-.775-2.231-2.71-1.825-4.452.405-1.742 1.825-2.323 3.448-1.549l30.021 16.647c1.42.774 2.231 2.71 1.825 4.452-.405 1.548-2.028 2.322-3.448 1.548zm-8.068 23.101l-30.021-16.647c-1.42-.774-2.231-2.71-1.826-4.452.406-1.742 1.826-2.323 3.449-1.548l30.02 16.646c1.42.775 2.232 2.71 1.826 4.452-.406 1.549-2.028 2.323-3.448 1.549zm-2.421 7.699l-30.021-16.647c-1.42-.774-2.231-2.709-1.825-4.452.405-1.742 1.825-2.322 3.448-1.548l30.021 16.647c1.419.774 2.231 2.709 1.825 4.452-.406 1.548-2.028 2.322-3.448 1.548zm103.059-42.741l-37.694-20.757c-.946-.516-1.486-1.805-1.216-2.965.27-1.161 1.216-1.547 2.297-1.032l37.694 20.757c.945.516 1.486 1.805 1.216 2.965-.406 1.161-1.351 1.676-2.297 1.032z" fill="#CFEFE7"/><path d="M368.194 198.995L330.5 178.238c-.945-.515-1.486-1.805-1.216-2.965.271-1.16 1.216-1.547 2.297-1.031l37.694 20.756c.946.516 1.486 1.805 1.216 2.966-.405 1.16-1.351 1.676-2.297 1.031zm-111.632-61.651l-15.537-8.509c-.946-.516-1.486-1.805-1.216-2.965.27-1.161 1.216-1.547 2.297-1.032l15.536 8.509c.946.516 1.487 1.805 1.216 2.966-.27 1.16-1.216 1.676-2.296 1.031zm106.227 103.548l-87.333-48.426c-4.131-2.252-9.74-9.208-5.952-18.448 4.741-11.567 11.263-12.665 15.983-10.412l87.333 48.426c4.131 2.253 10.86 8.956 7.632 19.351-3.228 10.395-13.533 11.762-17.663 9.509z" fill="#CFEFE7"/><path d="M350.189 233.909l-6.62-3.61c-.946-.516-1.486-1.805-1.216-2.965.27-1.161 1.216-1.547 2.297-1.032l6.62 3.61c.945.516 1.486 1.805 1.216 2.965-.406 1.161-1.351 1.547-2.297 1.032zm-72.188 13.689l-16.38-9.167c-3.698-2.037-5.812-7.13-4.755-11.714 1.057-4.583 4.755-6.111 8.982-4.074l16.38 9.167c3.699 2.037 5.813 7.13 4.756 11.714-1.057 4.583-4.756 6.621-8.983 4.074zm34.696 18.48l-16.379-9.167c-3.699-2.038-5.813-7.131-4.756-11.714 1.057-4.584 4.756-6.112 8.983-4.074l16.38 9.167c3.698 2.037 5.812 7.13 4.755 11.713-1.057 4.584-4.755 6.621-8.983 4.075zm33.89 18.48l-16.38-9.167c-3.698-2.037-5.812-7.13-4.755-11.714 1.056-4.583 4.755-6.111 8.982-4.074l16.38 9.167c3.699 2.037 5.813 7.13 4.756 11.714-1.057 4.583-4.756 6.621-8.983 4.074zm8.069-20.79l-16.379-9.167c-3.699-2.037-5.813-7.13-4.756-11.714 1.057-4.583 4.756-6.111 8.983-4.074l16.38 9.167c3.698 2.037 5.812 7.13 4.755 11.714-1.057 4.583-4.755 6.621-8.983 4.074zm-33.889-18.479l-16.38-9.168c-3.699-2.037-5.812-7.13-4.756-11.713 1.057-4.584 4.756-6.112 8.983-4.074l16.38 9.167c3.699 2.037 5.812 7.13 4.755 11.713-1.056 4.584-4.755 6.621-8.982 4.075zm-35.504-20.021l-16.38-9.167c-3.699-2.037-5.812-7.13-4.756-11.714 1.057-4.583 4.756-6.111 8.983-4.074l16.38 9.167c3.699 2.037 5.812 7.13 4.756 11.714-1.057 4.583-4.756 6.621-8.983 4.074zm99.453-17.759l-4.188-2.32c-.946-.516-1.486-1.805-1.216-2.966.27-1.16 1.216-1.547 2.297-1.031l4.188 2.321c.945.515 1.486 1.804 1.216 2.965-.271 1.16-1.216 1.676-2.297 1.031z" fill="#CFEFE7"/><path d="M405.717 146.626l16.482-6.188-3.782-23.335-7.972 6.833-4.728 22.69zM295.067 38.46l39.856-15.214s-7.296 15.213-7.431 15.213l-21.346 4.77-11.079-4.77z" fill="#006A4E"/><path d="M420.308 101.632a18.106 18.106 0 00-6.485-2.063c2.161-14.053-4.188-28.879-16.348-35.583-3.647-2.063-7.701-3.223-11.483-3.48 4.728-17.019-2.567-36.358-17.699-44.609-7.836-4.383-16.348-4.899-23.778-2.191l-.406.129c-.135.128-.405.128-.54.257l-12.565 4.642 4.999 4.125c-6.755 2.063-12.564 7.22-15.672 14.955-5.674 14.182.135 31.587 13.105 38.678l76.739 61.754c9.728 5.286 15.537 3.095 19.86-7.606 4.324-10.701-.135-23.722-9.727-29.008z" fill="#006A4E"/><path d="M323.844 31.498l43.098-16.373c-7.431-3.61-15.402-3.868-22.427-1.418l-.406.128c-.135.13-.405.13-.54.258l-12.565 4.642 4.999 4.125c-4.593 1.418-8.917 4.384-12.159 8.638zm59.986 61.625l28.372-10.83c-2.567-7.735-7.836-14.568-14.997-18.435-.945-.516-1.891-1.032-2.837-1.418l-39.045 14.955 28.507 15.728z" fill="#006A4E"/><path d="M339.921 20.41l12.159 6.703 21.211-7.993c-1.486-1.16-3.107-2.32-4.863-3.223-2.702-1.547-5.539-2.579-8.242-3.094l-20.265 7.606zm70.525 57.371l-20.401 7.736 6.08 8.122 17.563-6.704c-.811-3.094-1.891-6.317-3.242-9.154z" fill="#EDF9F6"/><path d="M406.527 106.66a18.076 18.076 0 00-6.485-2.062c2.162-14.053-4.323-28.88-16.482-35.712a26.144 26.144 0 00-11.214-3.352c4.729-17.018-2.567-36.357-17.698-44.608-16.213-8.896-35.127-1.676-42.153 16.115-.27.645-.405 1.16-.675 1.805-12.295-5.286-25.94.645-31.344 14.053-5.675 14.182.135 31.586 13.105 38.677l97.545 53.762c9.727 5.286 21.076 1.031 25.264-9.67 4.188-10.7-.135-23.593-9.863-29.008z" fill="#EDF9F6"/><path d="M408.553 105.628a18.098 18.098 0 00-6.485-2.063c2.162-14.052-4.323-28.879-16.482-35.712a26.144 26.144 0 00-11.214-3.352c4.729-17.018-2.567-36.356-17.698-44.607-9.593-5.286-20.266-4.9-28.778.129 8.107-3.997 17.834-3.997 26.751.902 14.996 8.251 22.427 27.59 17.699 44.608a26.144 26.144 0 0111.213 3.352c12.159 6.704 18.644 21.659 16.483 35.712a18.09 18.09 0 016.485 2.063c9.727 5.285 14.051 18.307 9.862 29.007-1.621 4.126-4.323 7.349-7.565 9.283 4.188-1.934 7.7-5.415 9.592-10.443 4.323-10.572-.135-23.464-9.863-28.879zm-96.734-66.654c.136-.515.406-1.031.541-1.547-6.62-2.32-13.646-1.547-19.32 1.934 5.809-2.836 12.43-3.094 18.779-.387z" fill="#fff"/><path d="M300.876 41.81c-1.756 0-3.513.388-5.134 1.032-3.918 1.676-7.16 5.415-9.187 10.314-4.999 12.506.406 28.363 11.754 34.552l97.545 53.761c3.107 1.676 6.215 2.063 8.647 1.161 2.431-.903 4.593-3.481 5.944-6.833 3.648-9.025-.27-20.499-8.376-25.012a16.13 16.13 0 00-4.594-1.547l-3.918-.515.541-3.224c2.026-12.892-4.189-26.558-14.862-32.489-2.972-1.675-5.944-2.578-8.917-2.707l-4.863-.258 1.08-3.868c4.324-15.6-2.702-33.649-16.077-40.997-6.215-3.481-12.835-4.126-18.509-1.934-5.674 2.192-10.403 7.22-13.105 14.052-.27.516-.405 1.032-.54 1.676l-2.567 7.736-7.701-3.223c-2.702-1.29-4.999-1.676-7.161-1.676z" fill="#45BB9B"/><path d="M348.567 101.503l3.378-1.289-2.567-1.805-.811 3.094zm-1.621-34.681l3.243-1.289-.27 1.29h-2.973zm12.16 26.558l3.513-1.288-4.999-4.77 1.486 6.059z" fill="#006A4E"/><path d="M351.135 100.214l-12.97-7.22c-.676-.386-1.081-1.289-.946-2.062l3.108-14.053 15.401 8.509-3.107 14.053c-.27.773-.811 1.16-1.486.773z" fill="#006A4E"/><path d="M350.189 65.533l-17.564 8.51c-.81.386-.54 1.675.406 2.191l14.321 7.865 14.321 7.864c.946.516 1.621-.258 1.216-1.29l-10.403-23.85c-.541-1.032-1.621-1.676-2.297-1.29z" fill="#006A4E"/><path d="M347.622 101.503l-12.97-7.22c-.675-.386-1.081-1.289-.945-2.062l3.107-14.053 15.402 8.509-3.108 14.053c-.135.773-.81 1.16-1.486.773z" fill="#EDF9F6"/><path d="M346.676 66.951l-17.563 8.51c-.811.386-.541 1.675.405 2.19l14.321 7.865 14.321 7.865c.946.515 1.621-.258 1.216-1.29l-10.403-23.85c-.405-1.16-1.486-1.677-2.297-1.29z" fill="#EDF9F6"/><path d="M17.563 382.429l52.015-28.492c4.053-2.192 11.214-1.934 15.942.644l106.732 59.048c4.729 2.578 5.269 6.575 1.081 8.766l-52.015 28.493c-4.053 2.191-11.213 1.934-15.942-.645L18.644 391.196c-4.728-2.579-5.134-6.446-1.08-8.767z" fill="#A5C7BE"/><path d="M143.48 441.605l53.231-29.266c2.297-1.289 3.513-2.965 3.513-4.77v-8.767l-1.757 2.837c-.81-.903-1.891-1.805-3.377-2.579L87.818 339.626c-6.08-3.352-15.267-3.739-20.536-.902l-53.23 29.265a5.984 5.984 0 00-1.487 1.032l-2.026-2.45v8.251c-.136 2.321 1.62 4.642 4.998 6.576l107.408 59.305c6.079 3.352 15.266 3.738 20.535.902z" fill="#45BB9B"/><path d="M14.186 361.543l53.23-29.266c5.27-2.836 14.457-2.449 20.537.903l107.272 59.434c6.079 3.352 6.755 8.38 1.486 11.345l-53.231 29.266c-5.269 2.836-14.456 2.449-20.536-.903L15.672 372.888c-6.08-3.352-6.755-8.509-1.486-11.345z" fill="#EDF9F6"/><path d="M196.711 403.959l-53.23 29.266c-5.269 2.836-14.456 2.45-20.536-.903L15.673 372.889c-2.973-1.677-4.594-3.61-5-5.673-.404 2.449 1.217 5.157 5 7.091l107.272 59.434c6.08 3.352 15.267 3.738 20.536.902l53.23-29.266c2.702-1.547 3.918-3.61 3.513-5.672-.27 1.547-1.351 3.094-3.513 4.254z" fill="#fff"/><path d="M17.563 362.703l52.015-28.492c4.053-2.192 11.214-1.934 15.942.645l106.732 59.047c4.729 2.578 5.269 6.575 1.081 8.767l-52.015 28.492c-4.053 2.192-11.213 1.934-15.942-.645L18.644 371.47c-4.728-2.578-5.134-6.446-1.08-8.767z" fill="#fff"/><path d="M101.328 373.147l-19.32-10.572c-.675-.387-.675-1.032.136-1.547.81-.516 2.026-.516 2.837-.129l19.32 10.572c.675.386.675 1.031-.136 1.547-.81.386-2.026.515-2.837.129zm-18.238-3.611l-6.891-3.739c-.676-.386-.676-1.031.135-1.547.81-.515 2.027-.515 2.837-.129l6.89 3.739c.676.387.676 1.032-.135 1.547-.81.387-2.026.516-2.837.129z" fill="#A5C7BE"/><path d="M94.708 375.854l-6.89-3.739c-.675-.387-.675-1.032.135-1.547.81-.516 2.027-.516 2.837-.129l6.89 3.739c.676.386.676 1.031-.135 1.547-.945.515-2.161.515-2.837.129z" fill="#45BB9B"/><path d="M117.946 388.746l-18.644-10.314c-.676-.387-.676-1.031.135-1.547.81-.516 2.026-.516 2.837-.129l18.644 10.314c.676.387.676 1.031-.135 1.547-.811.387-2.162.516-2.837.129zm-23.508-6.575l-24.049-13.279c-.675-.387-.675-1.031.135-1.547.811-.516 2.027-.516 2.838-.129l24.048 13.279c.675.387.675 1.032-.135 1.547-.81.516-2.162.516-2.837.129z" fill="#A5C7BE"/><path d="M123.35 404.604l-58.905-32.489c-.675-.387-.675-1.032.135-1.547.81-.516 2.027-.516 2.837-.129l58.905 32.489c.676.386.676 1.031-.135 1.547-.81.515-2.026.515-2.837.129z" fill="#45BB9B"/><path d="M140.508 394.677l-33.776-18.694c-.675-.387-.675-1.031.135-1.547.811-.516 2.027-.516 2.837-.129l33.911 18.694c.676.387.676 1.031-.135 1.547-.945.516-2.161.516-2.972.129z" fill="#A5C7BE"/><path d="M99.031 425.102l-4.998-2.707c-.54-.258-.946-1.031-.946-1.676s.405-.902.946-.645l4.998 2.708c.54.258.946 1.031.946 1.676 0 .644-.405 1.031-.946.644zm7.836 4.384l-4.998-2.707c-.541-.258-.946-1.032-.946-1.676 0-.645.405-.903.946-.645l4.998 2.708c.541.257.946 1.031.946 1.676 0 .644-.405.902-.946.644z" fill="#EDF9F6"/></svg>