<svg width="32" height="32" fill="none" xmlns="http://www.w3.org/2000/svg"><path d="M17.031 26.116a2.816 2.816 0 001.782-2.616A2.816 2.816 0 0016 20.687a2.816 2.816 0 00-2.813 2.813c0 1.187.74 2.203 1.782 2.616a4.695 4.695 0 00-3.656 4.572v.485c0 .457.37.827.827.827h7.72c.457 0 .827-.37.827-.827v-.485c0-2.23-1.566-4.1-3.656-4.572zm-11.25 0A2.817 2.817 0 007.563 23.5a2.816 2.816 0 00-2.813-2.813A2.816 2.816 0 001.937 23.5c0 1.187.74 2.203 1.782 2.616a4.695 4.695 0 00-3.656 4.572v.485c0 .457.37.827.827.827h7.72c.457 0 .827-.37.827-.827v-.485c0-2.23-1.566-4.1-3.656-4.572zm22.5 0a2.816 2.816 0 001.782-2.616 2.816 2.816 0 00-2.813-2.813 2.816 2.816 0 00-2.813 2.813c0 1.187.74 2.203 1.782 2.616a4.695 4.695 0 00-3.657 4.572v.485c0 .457.37.827.828.827h7.72c.457 0 .827-.37.827-.827v-.485c0-2.23-1.566-4.1-3.656-4.572zM14.684 11.313h2.632a4.707 4.707 0 013.161-2.702 4.705 4.705 0 00-3.445-3.183 2.816 2.816 0 001.78-2.615A2.816 2.816 0 0016 0a2.816 2.816 0 00-2.813 2.813c0 1.186.74 2.202 1.78 2.615a4.705 4.705 0 00-3.444 3.183 4.707 4.707 0 013.161 2.701zM9.059 21.656h2.632a4.707 4.707 0 013.16-2.7 4.705 4.705 0 00-3.445-3.184 2.816 2.816 0 001.781-2.616 2.816 2.816 0 00-2.812-2.812 2.816 2.816 0 00-2.813 2.812c0 1.187.74 2.204 1.781 2.616a4.705 4.705 0 00-3.446 3.183 4.707 4.707 0 013.162 2.701zm9.753-8.5c0 1.187.74 2.204 1.781 2.616a4.705 4.705 0 00-3.445 3.183 4.707 4.707 0 013.16 2.701h2.633a4.707 4.707 0 013.16-2.7 4.705 4.705 0 00-3.445-3.184 2.816 2.816 0 001.781-2.616 2.816 2.816 0 00-2.812-2.812 2.816 2.816 0 00-2.813 2.812z" fill="#fff"/></svg>