<svg width="29" height="29" fill="none" xmlns="http://www.w3.org/2000/svg"><path d="M2.821 16.223c2.223-3.2 3.53-5.261 4.484-6.785C3.642 9.762.13 14.321.13 14.321l2.418 2.418c.07-.179.16-.352.273-.516zm9.443 10.232l2.416 2.416s4.559-3.511 4.883-7.175c-1.523.953-3.584 2.26-6.785 4.484a2.513 2.513 0 01-.514.275zm-3.676-1.25c-.415.168-.822.346-1.247.488a19.32 19.32 0 01-3.49.8c-.497.068-.999.126-1.501.165l.014-.187c.104-1.207.288-2.41.585-3.585.143-.568.325-1.12.521-1.67.122-.343.274-.671.428-1l-.266-.265c-.592.397-1.106.9-1.542 1.467a9.623 9.623 0 00-1.47 2.797 11.642 11.642 0 00-.614 3.358c-.005.16-.016.323.009.481a1.12 1.12 0 00.762.892c.163.053.328.054.498.052a11.21 11.21 0 003.071-.482c1.809-.537 3.634-1.548 4.705-3.145l-.26-.259a7.407 7.407 0 01-.204.093zM28.707.296a1.003 1.003 0 00-.729-.294C24.75.065 16.786.67 12.556 4.9c-1.92 1.92-2.544 2.92-3.912 5.11-.985 1.577-2.333 3.737-4.798 7.284-.277.399-.228.939.115 1.282l6.466 6.466a1.002 1.002 0 001.282.114c3.548-2.465 5.707-3.813 7.284-4.798 2.19-1.367 3.19-1.991 5.11-3.912C28.34 12.208 28.939 4.25 29 1.024a.997.997 0 00-.293-.728zm-7.488 12.2a3.333 3.333 0 11-4.714-4.714 3.333 3.333 0 014.714 4.714z" fill="#fff"/></svg>