<svg width="36" height="32" fill="none" xmlns="http://www.w3.org/2000/svg"><path d="M9.308 19.638a8.88 8.88 0 01-.187-1.815c0-1.621.439-3.14 1.2-4.45a2.684 2.684 0 01-.604-1.7v-.318a10.461 10.461 0 00-2.23 6.468c0 .619.054 1.225.157 1.815h1.664zm18.949-2.008h.255a10.462 10.462 0 00-2.228-6.274v.318a2.69 2.69 0 01-.604 1.7 8.82 8.82 0 011.195 4.255h1.382zm-13.16 8.583v1.716c.922.266 1.896.409 2.903.409a10.47 10.47 0 002.904-.409v-1.716a8.838 8.838 0 01-5.807 0zm-2.685-13.314h11.174c.677 0 1.225-.549 1.225-1.225v-8.92h-6.518A1.225 1.225 0 0117.07 1.53V.745h-4.656c-.677 0-1.226.549-1.226 1.226v9.703c0 .676.549 1.225 1.226 1.225z" fill="#fff"/><path d="M5.88 19.885v-.783H1.226C.549 19.102 0 19.65 0 20.327v9.703c0 .677.549 1.225 1.225 1.225h11.174c.677 0 1.225-.548 1.225-1.225v-8.92H7.106a1.225 1.225 0 01-1.225-1.225zm23.602 1.225a1.225 1.225 0 01-1.225-1.225v-.783h-4.656c-.677 0-1.225.548-1.225 1.225v9.703c0 .677.548 1.226 1.225 1.226h11.174c.677 0 1.225-.55 1.225-1.226v-8.92h-6.518z" fill="#fff"/></svg>