<svg width="29" height="32" fill="none" xmlns="http://www.w3.org/2000/svg"><path d="M25.01 18.403l-.216-.07-.056-.22a5.53 5.53 0 00-5.363-4.158 5.58 5.58 0 00-5.295 3.912l-.1.325-.338-.035a5.544 5.544 0 00-6.122 5.507 5.544 5.544 0 005.538 5.537h10.216a5.544 5.544 0 005.538-5.537 5.525 5.525 0 00-3.803-5.26z" fill="#fff"/><path d="M6.506 23.664c0-.076.003-.152.006-.227-2.794-.455-4.419-1.477-4.419-2.102 0-.2.167-.438.48-.687 1.179.555 2.653.938 4.207 1.144a6.58 6.58 0 012.935-3.76l-.215.002c-4.594 0-7.407-1.512-7.407-2.335 0-.199.167-.438.48-.686 1.856.873 4.446 1.323 6.927 1.323 1.499 0 3.037-.165 4.43-.487a6.561 6.561 0 014.876-2.883 2.49 2.49 0 00.195-.573v-2.33c0-.705-.297-1.33-.81-1.873.416-.425.7-.903.81-1.432v-2.33C19 1.55 14.105 0 9.5 0 4.894 0 0 1.552 0 4.428L.001 6.71l.006.049c.109.528.391 1.004.805 1.428C.297 8.73 0 9.356 0 10.063l.002 2.282.005.048c.11.528.392 1.004.806 1.428C.297 14.365 0 14.991 0 15.7l.002 2.281.005.049c.11.528.392 1.004.806 1.428-.516.544-.813 1.17-.813 1.878l.002 2.28.005.05c.464 2.244 4.02 3.56 7.77 3.87a6.516 6.516 0 01-1.271-3.871zM9.5 2.094c4.595 0 7.407 1.51 7.407 2.334 0 .823-2.812 2.335-7.407 2.335-4.594 0-7.407-1.512-7.407-2.335S4.906 2.093 9.5 2.093zM2.574 9.377C4.429 10.25 7.019 10.7 9.5 10.7c2.48 0 5.071-.448 6.929-1.32.312.247.478.485.478.683 0 .824-2.812 2.335-7.407 2.335-4.594 0-7.407-1.511-7.407-2.335 0-.199.167-.438.48-.686zM7.751 30.17a3.147 3.147 0 01-2.42-.14 3.146 3.146 0 01-1.612-1.811.826.826 0 10-1.56.543 4.787 4.787 0 002.452 2.755 4.802 4.802 0 003.683.213.826.826 0 10-.543-1.56zm13.135-18.89a3.17 3.17 0 013.14 3.192.826.826 0 00.82.833h.007a.826.826 0 00.826-.82 4.825 4.825 0 00-4.78-4.858h-.007a.826.826 0 00-.006 1.652z" fill="#fff"/></svg>