<svg width="32" height="20" fill="none" xmlns="http://www.w3.org/2000/svg"><path d="M27.87 10.712c.15-.483.254-.993.254-1.496a4.62 4.62 0 00-4.62-4.621c-1.223 0-2.34.483-3.177 1.268-.693-4.223-4.445-3.667-4.804-3.634a8.523 8.523 0 011.7 5.104c.052 4.7-3.785 8.536-8.484 8.536a8.523 8.523 0 01-7.216-3.987A4.56 4.56 0 000 15.314a4.62 4.62 0 004.62 4.62h22.76a4.62 4.62 0 004.62-4.62 4.648 4.648 0 00-4.13-4.602z" fill="#fff"/><path d="M8.739.065a7.237 7.237 0 00-7.242 7.242c0 3.987 3.229 7.268 7.242 7.268 3.987 0 7.242-3.248 7.242-7.242 0-3.993-3.249-7.268-7.242-7.268zm.66 11.112v.457c0 .366-.294.66-.66.66a.658.658 0 01-.66-.66v-.457a2.367 2.367 0 01-1.02-.628.667.667 0 01.026-.935.667.667 0 01.935.027c.19.202.444.313.719.313a.99.99 0 00.987-.987.99.99 0 00-.987-.987 2.307 2.307 0 01-.66-4.516v-.457c0-.366.294-.66.66-.66.366 0 .66.294.66.66v.457c.386.118.739.333 1.02.628a.667.667 0 01-.027.934A.667.667 0 019.459 5a.975.975 0 00-.72-.314.99.99 0 00-.986.987.99.99 0 00.987.987 2.307 2.307 0 01.66 4.517z" fill="#fff"/></svg>