<svg width="34" height="30" fill="none" xmlns="http://www.w3.org/2000/svg"><path d="M32.991 7.324h-.694V5.622a2.02 2.02 0 00-2.017-2.018h-1.223V2.382A2.02 2.02 0 0027.04.364H2.017A2.02 2.02 0 000 2.382v20.294a2.02 2.02 0 002.018 2.018H3.24v1.222a2.02 2.02 0 002.018 2.018H6.96v.694c0 .557.452 1.008 1.009 1.008H32.99c.557 0 1.009-.451 1.009-1.008V8.333a1.01 1.01 0 00-1.009-1.009zm-22.815 13.63l2.475-5.406a.516.516 0 01.937-.002l2.506 5.407a.516.516 0 11-.936.433l-.625-1.348H11.73l-.616 1.346a.516.516 0 01-.938-.43zm6.597.215v-5.406c0-.285.231-.516.516-.516h1.227c1.592 0 2.581.87 2.581 2.271 0 1.426-.989 2.31-2.58 2.31h-.712v1.341a.516.516 0 01-1.032 0zm4.816.03V15.79c0-.284.23-.516.516-.516h1.227c1.592 0 2.581.87 2.581 2.272 0 1.425-.989 2.31-2.581 2.31h-.712v1.341a.516.516 0 01-1.031 0zm6.999-2.247c-.853-.258-2.022-.612-2.022-1.99 0-1.026.9-1.715 2.241-1.715.605 0 1.263.183 1.719.477a.516.516 0 01-.56.866c-.289-.186-.755-.312-1.159-.312-.558 0-1.21.18-1.21.684 0 .557.374.726 1.29 1.003.825.25 1.955.592 1.944 1.894 0 .998-.882 1.671-2.194 1.671-.795 0-1.605-.334-2.115-.872a.516.516 0 11.749-.71c.311.33.86.551 1.366.551.536 0 1.162-.169 1.162-.644.004-.465-.269-.617-1.211-.903zM2.018 2.382H27.04v1.222H5.258A2.02 2.02 0 003.24 5.622v17.054H2.017V2.382zm3.24 23.534V5.622H30.28v1.702H7.969a1.01 1.01 0 00-1.009 1.01v17.582H5.258z" fill="#fff"/></svg>