<svg xmlns="http://www.w3.org/2000/svg" width="486" height="190" fill="none"><path d="M127.025 114.665h23.196v33.471h-23.696v38.055H88.398v-38.055H.5v-30.24L73.293 3.258h53.232v111.407h.5zm-39.127 0h.5V35.81l-.92 1.422-49.597 76.662-.5.771h50.517zm222.631-65.407l.002.006c5.304 13.91 7.958 29.107 7.958 45.598s-2.654 31.689-7.958 45.598l-.002.006c-5.111 13.885-13.507 25.577-25.194 35.081-11.657 9.296-25.78 13.953-42.395 13.953-16.615 0-30.83-4.656-42.672-13.954-11.687-9.504-20.082-21.195-25.193-35.08-5.121-13.911-7.685-29.111-7.685-45.604s2.564-31.693 7.685-45.604c5.111-13.884 13.505-25.483 25.191-34.802C212.108 5.157 226.324.5 242.94.5s30.739 4.657 42.397 13.955c11.686 9.32 20.081 20.918 25.192 34.803zm151.274-46v111.407H485.5v33.471h-23.697v38.055h-38.127v-38.055h-87.897v-30.24L408.572 3.258h53.231zm-38.627 111.407h.5V35.81l-.919 1.422-49.598 76.662-.499.771h50.516zm-208.232 24.278c2.975 5.582 6.799 9.792 11.481 12.603 4.683 2.812 10.194 4.208 16.515 4.208s11.81-1.396 16.447-4.209c4.637-2.812 8.392-7.022 11.274-12.604 5.929-11.128 8.875-25.833 8.875-44.079 0-18.245-2.945-32.86-8.876-43.805-2.882-5.58-6.637-9.79-11.273-12.602-4.637-2.813-10.126-4.209-16.447-4.209s-11.832 1.396-16.515 4.208c-4.682 2.811-8.506 7.02-11.48 12.602-5.932 10.946-8.877 25.56-8.877 43.806 0 18.248 2.946 32.953 8.876 44.081z" fill="#00A377" fill-opacity=".1" stroke="#00A377"/></svg>