<svg class="icon" width="12" height="12" fill="none" xmlns="http://www.w3.org/2000/svg"><path d="M8.813 2.813a.703.703 0 01-.704-.704V.703a.703.703 0 111.407 0V2.11a.703.703 0 01-.704.704z" fill="#fff"/><path d="M10.71 1.406h-.491v.703c0 .776-.631 1.407-1.406 1.407a1.408 1.408 0 01-1.407-1.407v-.703H4.594v.703a1.408 1.408 0 01-2.813 0v-.703H1.29c-.71 0-1.29.579-1.29 1.29v1.57h12v-1.57c0-.711-.578-1.29-1.29-1.29z" fill="#fff"/><path d="M3.188 2.813a.703.703 0 01-.704-.704V.703a.703.703 0 111.407 0V2.11a.703.703 0 01-.704.704z" fill="#fff"/><path fill-rule="evenodd" clip-rule="evenodd" d="M0 4.969v5.742C0 11.42.578 12 1.29 12h9.42A1.29 1.29 0 0012 10.71V4.97H0zM1.29 6.75c0-.259.209-.469.468-.469h1.406c.259 0 .469.21.469.469v.656c0 .26-.21.469-.469.469H1.758a.469.469 0 01-.469-.469V6.75zm.468 2.156a.469.469 0 00-.469.469v.656c0 .26.21.469.469.469h1.406c.259 0 .469-.21.469-.469v-.656a.469.469 0 00-.469-.469H1.758zm3.07-2.156c0-.259.21-.469.469-.469h1.406c.259 0 .469.21.469.469v.656c0 .26-.21.469-.469.469H5.297a.469.469 0 01-.469-.469V6.75zm.469 2.156a.469.469 0 00-.469.469v.656c0 .26.21.469.469.469h1.406c.259 0 .469-.21.469-.469v-.656a.469.469 0 00-.469-.469H5.297zm3.07-2.156c0-.259.21-.469.469-.469h1.406c.26 0 .469.21.469.469v.656c0 .26-.21.469-.469.469H8.836a.469.469 0 01-.469-.469V6.75zm.469 2.156a.469.469 0 00-.469.469v.656c0 .26.21.469.469.469h1.406c.26 0 .469-.21.469-.469v-.656a.469.469 0 00-.469-.469H8.836z" fill="#fff"/></svg>