<svg width="30" height="30" fill="none" xmlns="http://www.w3.org/2000/svg"><path d="M15 30c8.284 0 15-6.716 15-15 0-8.284-6.716-15-15-15C6.716 0 0 6.716 0 15c0 8.284 6.716 15 15 15z" fill="#DC4E41"/><path d="M5.223 15.672c-.053 2.58 1.724 5.044 4.17 5.847 2.303.774 5.135.195 6.668-1.778 1.119-1.382 1.373-3.224 1.252-4.946-1.973-.018-3.945-.012-5.915-.009-.003.703 0 1.403.003 2.106 1.181.032 2.362.017 3.543.041-.298 1.022-.977 1.973-2.008 2.342-1.99.877-4.53-.27-5.155-2.357-.756-2 .481-4.412 2.524-4.993 1.267-.446 2.572.056 3.656.714a27.993 27.993 0 001.568-1.618c-1.231-1.03-2.814-1.662-4.441-1.523-3.192.038-5.986 2.985-5.865 6.174zm15.927-2.658c-.005.587-.011 1.178-.014 1.766-.59.005-1.178.008-1.766.011v1.76c.588.003 1.178.006 1.766.012.006.588.006 1.175.012 1.766.585 0 1.172-.003 1.76 0 .003-.59.006-1.178.012-1.769l1.765-.008v-1.76c-.587-.003-1.178-.006-1.765-.012-.004-.588-.01-1.179-.012-1.766H21.15z" fill="#DC4E41"/><path d="M5.223 15.671c-.121-3.189 2.672-6.136 5.865-6.174 1.627-.14 3.21.493 4.441 1.523a28.03 28.03 0 01-1.568 1.618c-1.084-.658-2.39-1.16-3.656-.714-2.043.582-3.28 2.994-2.525 4.993.627 2.088 3.166 3.234 5.156 2.357 1.03-.37 1.71-1.32 2.008-2.342-1.18-.023-2.362-.009-3.543-.041-.003-.703-.006-1.403-.003-2.106 1.97-.003 3.942-.009 5.915.01.12 1.72-.133 3.563-1.253 4.945-1.532 1.973-4.364 2.552-6.668 1.778-2.444-.803-4.222-3.266-4.169-5.847zm15.927-2.657h1.758l.012 1.766c.587.005 1.178.008 1.765.011v1.76l-1.765.01c-.006.59-.01 1.177-.012 1.768-.588-.003-1.176 0-1.76 0-.006-.59-.006-1.178-.012-1.766-.587-.006-1.178-.009-1.766-.012v-1.76c.588-.003 1.176-.006 1.766-.012.003-.587.009-1.178.015-1.765z" fill="#fff"/></svg>