<svg width="30" height="30" fill="none" xmlns="http://www.w3.org/2000/svg"><path d="M19.47 7.981h-8.94a2.591 2.591 0 00-2.59 2.589v8.941a2.591 2.591 0 002.59 2.589h8.94a2.592 2.592 0 002.59-2.589V10.57a2.591 2.591 0 00-2.59-2.589zM15 19.688a4.653 4.653 0 01-4.648-4.648A4.653 4.653 0 0115 10.393a4.653 4.653 0 014.648 4.647A4.653 4.653 0 0115 19.688zm4.797-8.334a1.1 1.1 0 01-1.1-1.1 1.101 1.101 0 012.2 0c0 .607-.494 1.1-1.1 1.1z" fill="#6A453B"/><path d="M15 12.356a2.687 2.687 0 00-2.684 2.684A2.688 2.688 0 0015 17.724a2.687 2.687 0 002.684-2.684A2.687 2.687 0 0015 12.356z" fill="#6A453B"/><path d="M15 0C6.716 0 0 6.716 0 15c0 8.284 6.716 15 15 15 8.284 0 15-6.716 15-15 0-8.284-6.716-15-15-15zm9.023 19.511a4.557 4.557 0 01-4.552 4.552h-8.942a4.557 4.557 0 01-4.552-4.552V10.57a4.557 4.557 0 014.552-4.552h8.942a4.557 4.557 0 014.552 4.552v8.941z" fill="#6A453B"/></svg>