<svg width="65" height="50" fill="none" xmlns="http://www.w3.org/2000/svg"><path d="M22.05 0l6.444 8.618c-4.814 3.675-7.764 6.392-8.851 8.152-1.087 1.76-1.63 3.623-1.63 5.59 0 2.07 1.267 4.374 3.804 6.91 2.536 2.536 3.804 5.254 3.804 8.152C25.621 45.808 21.481 50 13.2 50c-4.193 0-7.454-1.346-9.783-4.037C1.14 43.27 0 39.648 0 35.093 0 20.807 7.35 9.11 22.05 0zm35.714 0l6.444 8.618c-4.814 3.675-7.764 6.392-8.85 8.152-1.088 1.76-1.631 3.623-1.631 5.59 0 2.07 1.268 4.374 3.804 6.91 2.536 2.536 3.804 5.254 3.804 8.152 0 8.386-4.14 12.578-12.422 12.578-4.192 0-7.453-1.346-9.783-4.037-2.277-2.692-3.416-6.315-3.416-10.87 0-14.286 7.35-25.983 22.05-35.093z" fill="#00A377"/></svg>