<svg width="30" height="30" fill="none" xmlns="http://www.w3.org/2000/svg"><path d="M15 30c8.284 0 15-6.716 15-15 0-8.284-6.716-15-15-15C6.716 0 0 6.716 0 15c0 8.284 6.716 15 15 15z" fill="#55ACEE"/><path d="M24.188 10.78a7.154 7.154 0 01-2.06.564 3.595 3.595 0 001.577-1.983 7.2 7.2 0 01-2.276.87 3.586 3.586 0 00-6.11 3.27 10.178 10.178 0 01-7.39-3.746 3.585 3.585 0 001.11 4.787 3.56 3.56 0 01-1.625-.45v.046a3.588 3.588 0 002.876 3.516 3.575 3.575 0 01-1.62.061 3.59 3.59 0 003.35 2.49 7.194 7.194 0 01-5.308 1.485 10.142 10.142 0 005.496 1.611c6.594 0 10.201-5.463 10.201-10.202 0-.155-.003-.31-.01-.463a7.271 7.271 0 001.789-1.856z" fill="#F1F2F2"/></svg>