<svg width="28" height="33" fill="none" xmlns="http://www.w3.org/2000/svg"><path d="M14 10.176a6.272 6.272 0 00-6.265 6.265A6.272 6.272 0 0014 22.706a6.272 6.272 0 006.265-6.265A6.272 6.272 0 0014 10.176zm3.72 5.085l-4.489 4.488a.962.962 0 01-1.364 0l-1.715-1.715a.964.964 0 111.364-1.364l1.033 1.033 3.806-3.806a.964.964 0 111.364 1.364z" fill="#fff"/><path d="M27.967 8.921v-.025a32.7 32.7 0 01-.03-1.022 3.485 3.485 0 00-3.282-3.414c-3.78-.21-6.705-1.444-9.203-3.88L15.43.56a2.104 2.104 0 00-2.86 0l-.02.02c-2.5 2.436-5.424 3.67-9.205 3.88A3.485 3.485 0 00.064 7.874c-.006.37-.015.704-.03 1.022l-.001.06c-.074 3.854-.165 8.652 1.44 13.007.883 2.395 2.22 4.476 3.972 6.187 1.997 1.949 4.613 3.496 7.774 4.598a2.393 2.393 0 001.244.087 2.41 2.41 0 00.32-.087c3.157-1.104 5.77-2.652 7.765-4.6 1.753-1.712 3.09-3.794 3.973-6.19 1.61-4.367 1.52-9.174 1.446-13.037zM14 24.636c-4.519 0-8.195-3.676-8.195-8.195 0-4.518 3.676-8.194 8.195-8.194 4.518 0 8.194 3.675 8.194 8.194 0 4.519-3.676 8.195-8.194 8.195z" fill="#fff"/></svg>