<svg width="28" height="25" fill="none" xmlns="http://www.w3.org/2000/svg"><path d="M26.305 7.383V4.799A2.465 2.465 0 0028 2.461 2.464 2.464 0 0025.54 0a2.464 2.464 0 00-2.462 2.46c0 1.05.66 1.947 1.586 2.3v2.03L21.602 7.8v1.728l4.14-1.366a.82.82 0 00.563-.78zM3.336 4.76a2.465 2.465 0 001.586-2.3A2.464 2.464 0 002.46 0 2.464 2.464 0 000 2.46C0 3.55.712 4.478 1.695 4.8v2.583a.82.82 0 00.564.78l4.14 1.365V7.8L3.335 6.79V4.76zM1.695 17.282v2.583A2.465 2.465 0 000 22.203a2.464 2.464 0 002.46 2.461 2.464 2.464 0 002.462-2.46c0-1.05-.66-1.947-1.586-2.3v-2.03l3.062-1.01v-1.727l-4.14 1.365a.82.82 0 00-.563.78zM25.54 9.844c-1.07 0-1.982.686-2.32 1.64h-1.618v1.641h1.617a2.465 2.465 0 002.32 1.64A2.464 2.464 0 0028 12.306a2.464 2.464 0 00-2.46-2.461zm.765 10.021v-2.583a.82.82 0 00-.564-.78l-4.14-1.365v1.728l3.063 1.01v2.029a2.465 2.465 0 00-1.586 2.3 2.464 2.464 0 002.461 2.46A2.464 2.464 0 0028 22.204c0-1.09-.712-2.016-1.695-2.339zM2.46 9.844A2.464 2.464 0 000 12.304a2.464 2.464 0 002.46 2.462c1.07 0 1.982-.686 2.32-1.641h1.618v-1.64H4.781a2.465 2.465 0 00-2.32-1.641zM8.04 6.29c0 2.935 11.92 2.935 11.92 0 0-2.936-11.92-2.936-11.92 0z" fill="#fff"/><path d="M8.04 8.88v1.757c-.088 2.95 12.01 2.997 11.92 0V8.88c-2.75 1.685-9.162 1.69-11.92 0z" fill="#fff"/><path d="M8.04 13.255v1.702c-.09 2.988 12.008 2.966 11.92 0v-1.702c-2.75 1.685-9.162 1.69-11.92 0z" fill="#fff"/><path d="M8.04 17.575v1.84c0 2.95 11.92 2.93 11.92 0v-1.84c-2.75 1.685-9.162 1.69-11.92 0z" fill="#fff"/></svg>