<svg width="28" height="28" fill="none" xmlns="http://www.w3.org/2000/svg"><path d="M13.18 15.64h1.64v4.157h-1.64V15.64zm-9.024 2.462h6.563a.82.82 0 00.82-.82V15.64H9.9v.82H3.335a.82.82 0 00-.82.82v2.516h1.64v-1.695zm19.688 1.695h1.64V17.28a.82.82 0 00-.82-.82h-6.562v-.82H16.46v1.64c0 .453.367.82.82.82h6.563v1.696zm-7.384 1.641h-4.92a.82.82 0 00-.821.82v4.922c0 .453.367.82.82.82h4.922a.82.82 0 00.82-.82v-4.922a.82.82 0 00-.82-.82zm10.72 0h-4.922a.82.82 0 00-.82.82v4.922c0 .453.367.82.82.82h4.922a.82.82 0 00.82-.82v-4.922a.82.82 0 00-.82-.82zM8.544 14.081h11.327a3.507 3.507 0 10-.677-6.953C20.327 3.606 17.694 0 14 0c-3.343 0-5.9 2.978-5.393 6.289a3.897 3.897 0 10-.063 7.792zm-2.802 7.357H.82a.82.82 0 00-.82.82v4.922c0 .453.367.82.82.82h4.922a.82.82 0 00.82-.82v-4.922a.82.82 0 00-.82-.82z" fill="#fff"/></svg>