<svg width="28" height="29" fill="none" xmlns="http://www.w3.org/2000/svg"><path d="M19.632 18.112c1.854-1.953 3.034-4.713 3.034-7.347A8.666 8.666 0 0014 2.098a8.666 8.666 0 00-8.666 8.667c0 1.184.249 2.389.68 3.539 1.065 2.4 3.156 4.263 5.803 4.94A2.795 2.795 0 0114 18.207a2.825 2.825 0 012.822 2.822A2.825 2.825 0 0114 23.849a2.823 2.823 0 01-2.547-1.61 11.713 11.713 0 01-5.823-3.211C2.215 20.487 0 22.81 0 25.433c0 4.419 28 4.419 28 0 0-3.273-3.442-6.082-8.368-7.321z" fill="#fff"/><path d="M12.212 21.368A1.82 1.82 0 1014 19.208c-.774 0-1.43.483-1.695 1.163-4.577-.805-8.068-4.802-8.068-9.607C4.237 5.38 8.617 1 14 1c5.385 0 9.764 4.38 9.764 9.764h1C24.763 4.83 19.933 0 14 0 8.065 0 3.236 4.828 3.236 10.764c0 5.326 3.891 9.748 8.976 10.604z" fill="#fff"/></svg>