<svg width="28" height="28" fill="none" xmlns="http://www.w3.org/2000/svg"><path d="M10.872 13.05c6.007 0 10.873-1.949 10.873-4.35V4.35c0-2.404-4.869-4.35-10.873-4.35S0 1.945 0 4.35V8.7c0 2.401 4.867 4.35 10.872 4.35zm0-11.962c5.974 0 9.785 1.93 9.785 3.262 0 1.328-3.811 3.261-9.785 3.261-5.973 0-9.785-1.933-9.785-3.261 0-1.331 3.812-3.262 9.785-3.262z" fill="#fff"/><path d="M10.872 19.573c1.298 0 2.536-.095 3.69-.261.931-3.088 3.798-5.34 7.183-5.34v-3.099c0 2.402-4.869 4.35-10.873 4.35S0 13.275 0 10.873v4.35c0 2.403 4.867 4.35 10.872 4.35z" fill="#fff"/><path d="M10.872 21.748C4.867 21.748 0 19.802 0 17.398v4.35c0 2.403 4.868 4.35 10.872 4.35 1.667 0 3.24-.154 4.653-.422a7.457 7.457 0 01-1.283-4.143 26.244 26.244 0 01-3.37.215zm10.873-2.051a1.783 1.783 0 11-1.781 1.781c0-.983.798-1.78 1.781-1.78z" fill="#fff"/><path d="M21.745 15.224a6.255 6.255 0 100 12.51 6.255 6.255 0 000-12.51zm3.848 5.878l-.666.246c-.092.034-.166.119-.166.186 0 .068.059.283.148.325l.643.295a.178.178 0 01.087.235l-.67 1.456a.18.18 0 01-.237.087l-.643-.297c-.09-.041-.29.052-.344.097-.051.044-.066.156-.03.248l.245.665a.182.182 0 01-.105.23l-1.503.555a.181.181 0 01-.23-.106l-.246-.666c-.033-.093-.242-.169-.31-.172-.069-.005-.157.064-.198.151l-.297.647a.175.175 0 01-.236.084l-1.456-.67a.178.178 0 01-.086-.235l.298-.643c.04-.09-.054-.29-.097-.34-.044-.055-.157-.07-.248-.035l-.666.247a.184.184 0 01-.23-.105l-.555-1.506a.182.182 0 01.105-.23l.667-.244c.09-.034.17-.243.174-.31.002-.07-.066-.159-.154-.198l-.644-.298a.174.174 0 01-.087-.234l.67-1.457a.178.178 0 01.236-.088l.643.298c.09.04.291-.053.342-.097.053-.044.067-.156.032-.247l-.244-.667a.18.18 0 01.105-.23l1.502-.555a.182.182 0 01.23.106l.245.667c.034.092.244.168.312.172.069.006.157-.065.198-.153l.297-.645a.178.178 0 01.236-.086l1.453.67c.088.041.129.146.088.237l-.295.643c-.044.087.051.29.095.341.044.052.156.07.25.034l.663-.246a.182.182 0 01.23.105l.554 1.503a.18.18 0 01-.105.23z" fill="#fff"/></svg>