<svg xmlns="http://www.w3.org/2000/svg" width="60" height="60" viewBox="0 0 46 46" fill="none"><path d="M30.448 28.986l.46.466c.114.126.13.193 0 .343-1.322 1.364-2.855 2.359-4.68 2.836-.345.092-.699.163-1.052.234l-.287.059c-.073.008-.146.025-.219.041.005-.01.014-.014.021-.018a.038.038 0 00.012-.007c-.95.109-1.623.059-2.426-.067-4.218-.644-7.155-3.638-8.048-7.544-.202-.912-.332-2.794-.121-4.258.56-3.956 2.912-6.524 6.636-7.687 1.633-.514 3.738-.37 3.99-.353a.776.776 0 00.025.002c2.402.226 4.397 1.313 6.093 3.036.17.176.146.26-.008.419l-.646.663c-.647.664-1.293 1.327-1.926 2.005-.195.209-.308.2-.503.008-.827-.803-1.768-1.413-2.904-1.64-3.7-.735-7.171 1.79-6.555 6.324.52 3.823 4.024 5.37 7.034 4.442.957-.301 1.736-.879 2.441-1.581a2.11 2.11 0 00.037-.037c.103-.103.186-.186.353-.013.75.786 1.51 1.556 2.273 2.327z" fill="#fff"/><path d="M23.502 26.29c-1.8 0-3.229-1.471-3.229-3.337 0-1.857 1.428-3.346 3.221-3.362 1.768-.009 3.22 1.497 3.229 3.354 0 1.865-1.42 3.346-3.22 3.346z" fill="#fff"/></svg>